<svg width="6" height="12" viewBox="0 0 6 12" fill="none" xmlns="http://www.w3.org/2000/svg">
<path d="M4.58187 11.5855C4.46618 11.5859 4.35187 11.5604 4.24734 11.5108C4.14281 11.4612 4.05072 11.3888 3.97784 11.299L0.237506 6.65259C0.123607 6.51403 0.0613403 6.34022 0.0613403 6.16085C0.0613403 5.98148 0.123607 5.80767 0.237506 5.66911L4.10948 1.02273C4.24093 0.864589 4.42981 0.765137 4.63458 0.746258C4.83935 0.727378 5.04324 0.790617 5.20138 0.922062C5.35953 1.05351 5.45898 1.24239 5.47786 1.44716C5.49674 1.65193 5.4335 1.85581 5.30205 2.01396L1.84051 6.16472L5.18589 10.3155C5.28059 10.4292 5.34074 10.5676 5.35923 10.7144C5.37773 10.8611 5.35379 11.0102 5.29024 11.1438C5.2267 11.2774 5.12621 11.39 5.00067 11.4683C4.87514 11.5465 4.7298 11.5872 4.58187 11.5855Z" fill="#48B9BD"/>
</svg>
