<svg width="22" height="20" viewBox="0 0 22 20" fill="none" xmlns="http://www.w3.org/2000/svg">
<path d="M3.82639 13.7649L2.16312 15.3911C2.98016 17.291 4.50726 17.9036 5.16867 17.9725L6.86112 16.4237L10.246 19.418L13.2224 16.6043L11.2089 12.6807C14.2145 9.97886 20.2781 4.51327 20.4882 4.26546C21.3986 3.31552 21.7235 1.47759 21.7721 0.677369C20.6516 0.408908 18.6012 1.20225 17.7161 1.63247L8.23258 10.0477L3.53459 8.11168L0.704117 10.8737L3.82639 13.7649Z" fill="#9AF4FA"/>
<path d="M15.7319 9.01511L18.7083 6.45956L19.321 6.92421L19.8171 10.3574L17.7453 12.1902L15.7319 9.01511Z" fill="#9AF4FA"/>
<path d="M12.1427 5.89169L15.0315 3.25871L14.5063 2.71662L10.6253 2.27779L8.55354 4.11056L12.1427 5.89169Z" fill="#9AF4FA"/>
</svg>
