<svg width="18" height="12" viewBox="0 0 18 12" fill="none" xmlns="http://www.w3.org/2000/svg">
<path d="M15.7663 5.61149H1.76012V4.8371H3.5109L4.38629 0.965118H8.76323L9.63862 4.8371H15.7663V5.61149ZM9.83121 1.73951L10.1814 3.28831H17.5171V1.73951H9.83121V1.73951ZM17.5171 8.70908C17.5171 9.32522 17.2404 9.91614 16.7479 10.3518C16.2554 10.7875 15.5875 11.0323 14.891 11.0323H2.63551C1.939 11.0323 1.27103 10.7875 0.778525 10.3518C0.286023 9.91614 0.00933838 9.32522 0.00933838 8.70908C0.00933838 8.09293 0.286023 7.50202 0.778525 7.06633C1.27103 6.63065 1.939 6.38589 2.63551 6.38589H14.891C15.5875 6.38589 16.2554 6.63065 16.7479 7.06633C17.2404 7.50202 17.5171 8.09293 17.5171 8.70908ZM3.5109 8.70908C3.5109 8.50369 3.41867 8.30672 3.2545 8.1615C3.09033 8.01627 2.86767 7.93468 2.63551 7.93468C2.40334 7.93468 2.18068 8.01627 2.01651 8.1615C1.85235 8.30672 1.76012 8.50369 1.76012 8.70908C1.76012 8.91446 1.85235 9.11143 2.01651 9.25666C2.18068 9.40188 2.40334 9.48347 2.63551 9.48347C2.86767 9.48347 3.09033 9.40188 3.2545 9.25666C3.41867 9.11143 3.5109 8.91446 3.5109 8.70908ZM9.63862 8.70908C9.63862 8.50369 9.54639 8.30672 9.38223 8.1615C9.21806 8.01627 8.9954 7.93468 8.76323 7.93468C8.53106 7.93468 8.30841 8.01627 8.14424 8.1615C7.98007 8.30672 7.88784 8.50369 7.88784 8.70908C7.88784 8.91446 7.98007 9.11143 8.14424 9.25666C8.30841 9.40188 8.53106 9.48347 8.76323 9.48347C8.9954 9.48347 9.21806 9.40188 9.38223 9.25666C9.54639 9.11143 9.63862 8.91446 9.63862 8.70908ZM15.7663 8.70908C15.7663 8.50369 15.6741 8.30672 15.51 8.1615C15.3458 8.01627 15.1231 7.93468 14.891 7.93468C14.6588 7.93468 14.4361 8.01627 14.272 8.1615C14.1078 8.30672 14.0156 8.50369 14.0156 8.70908C14.0156 8.91446 14.1078 9.11143 14.272 9.25666C14.4361 9.40188 14.6588 9.48347 14.891 9.48347C15.1231 9.48347 15.3458 9.40188 15.51 9.25666C15.6741 9.11143 15.7663 8.91446 15.7663 8.70908Z" fill="#00FFFF"/>
</svg>
