<svg width="383" height="297" viewBox="0 0 383 297" fill="none" xmlns="http://www.w3.org/2000/svg">
<g style="mix-blend-mode:soft-light" clip-path="url(#clip0_19_5065)">
<path d="M281.888 209.961C281.99 209.964 282.089 209.996 282.173 210.055C282.256 210.113 282.321 210.195 282.358 210.291C282.395 210.386 282.403 210.49 282.381 210.59C282.359 210.689 282.308 210.78 282.234 210.851C282.16 210.922 282.067 210.969 281.966 210.987C281.866 211.004 281.762 210.992 281.668 210.951C281.575 210.91 281.495 210.842 281.44 210.756C281.386 210.67 281.357 210.569 281.36 210.467C281.361 210.399 281.376 210.332 281.403 210.27C281.43 210.208 281.47 210.152 281.519 210.105C281.568 210.058 281.626 210.021 281.689 209.996C281.752 209.972 281.82 209.96 281.888 209.961Z" fill="white"/>
<path d="M238.499 197.201C238.643 197.204 238.784 197.248 238.902 197.331C239.021 197.413 239.112 197.528 239.165 197.662C239.218 197.796 239.23 197.943 239.199 198.084C239.169 198.225 239.097 198.353 238.993 198.453C238.889 198.553 238.758 198.62 238.616 198.645C238.474 198.671 238.327 198.653 238.195 198.595C238.063 198.537 237.951 198.441 237.874 198.32C237.796 198.198 237.757 198.056 237.76 197.912C237.764 197.72 237.845 197.538 237.983 197.405C238.122 197.271 238.307 197.198 238.499 197.201Z" fill="white"/>
<path d="M223.227 232.26C223.329 232.26 223.426 232.3 223.498 232.372C223.57 232.444 223.61 232.541 223.61 232.643C223.61 232.745 223.57 232.842 223.498 232.914C223.426 232.986 223.329 233.026 223.227 233.026C223.177 233.026 223.127 233.015 223.081 232.995C223.034 232.975 222.992 232.946 222.957 232.91C222.922 232.874 222.895 232.831 222.876 232.784C222.857 232.738 222.848 232.688 222.849 232.637C222.852 232.538 222.893 232.444 222.963 232.373C223.033 232.303 223.128 232.262 223.227 232.26Z" fill="white"/>
<path d="M291.852 75.9663C291.903 75.967 291.952 75.9776 291.999 75.9976C292.045 76.0175 292.087 76.0463 292.122 76.0824C292.157 76.1185 292.185 76.1612 292.203 76.208C292.222 76.2548 292.231 76.3048 292.23 76.3551C292.23 76.4059 292.219 76.4561 292.198 76.5027C292.178 76.5493 292.149 76.5914 292.112 76.6265C292.075 76.6617 292.032 76.6892 291.985 76.7074C291.937 76.7257 291.886 76.7343 291.836 76.7329C291.785 76.7314 291.736 76.7201 291.69 76.6995C291.644 76.6789 291.602 76.6494 291.568 76.6128C291.533 76.5761 291.506 76.5331 291.488 76.486C291.47 76.4389 291.462 76.3888 291.463 76.3384C291.464 76.2884 291.475 76.2389 291.495 76.193C291.515 76.1471 291.544 76.1056 291.58 76.0709C291.616 76.0363 291.659 76.0092 291.706 75.9912C291.752 75.9733 291.802 75.9648 291.852 75.9663Z" fill="white"/>
<path d="M261.108 157.116C261.183 157.117 261.257 157.14 261.32 157.183C261.382 157.226 261.43 157.287 261.458 157.357C261.486 157.428 261.493 157.505 261.477 157.579C261.461 157.653 261.424 157.721 261.369 157.774C261.315 157.827 261.246 157.862 261.171 157.876C261.097 157.889 261.02 157.881 260.95 157.851C260.881 157.821 260.821 157.771 260.78 157.707C260.739 157.643 260.717 157.569 260.719 157.493C260.719 157.443 260.729 157.393 260.748 157.346C260.768 157.3 260.797 157.257 260.833 157.222C260.869 157.187 260.912 157.159 260.96 157.141C261.007 157.123 261.057 157.114 261.108 157.116Z" fill="white"/>
<path d="M251.743 261.746C251.879 261.748 252.012 261.791 252.124 261.869C252.236 261.946 252.323 262.055 252.373 262.182C252.423 262.308 252.434 262.447 252.406 262.58C252.377 262.713 252.309 262.835 252.211 262.93C252.113 263.025 251.99 263.088 251.855 263.113C251.721 263.137 251.583 263.121 251.458 263.067C251.333 263.013 251.227 262.923 251.153 262.808C251.079 262.694 251.041 262.56 251.043 262.424C251.047 262.242 251.123 262.069 251.254 261.942C251.385 261.815 251.561 261.745 251.743 261.746Z" fill="white"/>
<path d="M274.729 203.873C274.853 203.874 274.973 203.912 275.075 203.982C275.177 204.052 275.256 204.15 275.302 204.265C275.347 204.38 275.358 204.505 275.332 204.626C275.306 204.747 275.245 204.857 275.156 204.943C275.067 205.029 274.954 205.086 274.833 205.108C274.711 205.129 274.586 205.114 274.472 205.064C274.359 205.015 274.264 204.932 274.198 204.828C274.132 204.724 274.098 204.602 274.101 204.478C274.102 204.397 274.119 204.317 274.151 204.242C274.183 204.168 274.23 204.1 274.288 204.044C274.347 203.988 274.416 203.943 274.491 203.914C274.567 203.885 274.648 203.871 274.729 203.873Z" fill="white"/>
<path d="M298.649 99.2255C298.773 99.2277 298.893 99.2665 298.994 99.337C299.095 99.4074 299.173 99.5064 299.218 99.6212C299.263 99.736 299.272 99.8616 299.246 99.9819C299.219 100.102 299.157 100.212 299.068 100.297C298.979 100.382 298.867 100.439 298.745 100.46C298.624 100.482 298.499 100.466 298.386 100.416C298.273 100.366 298.178 100.284 298.112 100.18C298.046 100.076 298.013 99.9542 298.016 99.831C298.02 99.6669 298.089 99.5113 298.208 99.3978C298.327 99.2844 298.485 99.2225 298.649 99.2255Z" fill="white"/>
<path d="M152.59 125.518C152.712 125.521 152.83 125.561 152.929 125.631C153.028 125.701 153.105 125.799 153.149 125.913C153.192 126.026 153.202 126.15 153.175 126.269C153.148 126.388 153.087 126.496 152.999 126.58C152.911 126.664 152.8 126.72 152.68 126.742C152.561 126.763 152.437 126.748 152.326 126.699C152.214 126.65 152.119 126.57 152.054 126.467C151.988 126.365 151.954 126.245 151.956 126.123C151.958 126.042 151.975 125.962 152.008 125.887C152.041 125.812 152.088 125.745 152.147 125.689C152.206 125.632 152.275 125.588 152.351 125.559C152.427 125.53 152.508 125.516 152.59 125.518Z" fill="white"/>
<path d="M216.302 214.483C216.406 214.489 216.506 214.525 216.589 214.587C216.673 214.649 216.736 214.734 216.771 214.832C216.806 214.929 216.812 215.035 216.787 215.136C216.762 215.237 216.708 215.328 216.632 215.399C216.555 215.469 216.46 215.515 216.357 215.531C216.254 215.548 216.149 215.533 216.055 215.49C215.96 215.447 215.881 215.377 215.826 215.289C215.771 215.201 215.743 215.098 215.746 214.994C215.748 214.924 215.763 214.854 215.792 214.79C215.821 214.726 215.863 214.668 215.915 214.62C215.967 214.572 216.028 214.536 216.095 214.512C216.161 214.489 216.232 214.479 216.302 214.483Z" fill="white"/>
<path d="M266.988 227.182C267.09 227.183 267.19 227.215 267.274 227.273C267.359 227.331 267.424 227.412 267.462 227.508C267.5 227.603 267.509 227.707 267.487 227.807C267.466 227.907 267.415 227.999 267.341 228.07C267.268 228.141 267.175 228.189 267.074 228.207C266.973 228.225 266.869 228.213 266.775 228.172C266.681 228.131 266.602 228.063 266.546 227.977C266.491 227.891 266.463 227.79 266.465 227.688C266.468 227.552 266.525 227.422 266.622 227.328C266.72 227.233 266.851 227.181 266.988 227.182Z" fill="white"/>
<path d="M233.414 86.3488C233.515 86.3564 233.611 86.3933 233.691 86.455C233.771 86.5167 233.831 86.6004 233.864 86.6959C233.897 86.7913 233.901 86.8943 233.876 86.992C233.851 87.0898 233.798 87.1781 233.723 87.2461C233.648 87.314 233.555 87.3585 233.455 87.3742C233.356 87.39 233.254 87.3761 233.162 87.3345C233.07 87.2928 232.992 87.2251 232.938 87.1398C232.884 87.0545 232.856 86.9552 232.858 86.8543C232.86 86.784 232.875 86.7147 232.904 86.6507C232.933 86.5866 232.975 86.5292 233.027 86.4818C233.079 86.4345 233.14 86.3983 233.207 86.3754C233.273 86.3525 233.344 86.3435 233.414 86.3488Z" fill="white"/>
<path d="M248.898 39.7246C248.993 39.726 249.088 39.7463 249.175 39.7842C249.263 39.8221 249.343 39.877 249.409 39.9456C249.476 40.0142 249.528 40.0952 249.563 40.1841C249.599 40.2729 249.616 40.3679 249.615 40.4634C249.613 40.6089 249.569 40.7508 249.487 40.871C249.405 40.9912 249.289 41.0842 249.154 41.1384C249.019 41.1925 248.871 41.2052 248.728 41.1749C248.586 41.1446 248.456 41.0727 248.354 40.9682C248.253 40.8638 248.185 40.7316 248.159 40.5884C248.133 40.4452 248.15 40.2976 248.209 40.1643C248.267 40.0309 248.364 39.9179 248.486 39.8396C248.609 39.7613 248.752 39.7213 248.898 39.7246Z" fill="white"/>
<path d="M196.461 114.708C196.585 114.709 196.705 114.746 196.807 114.816C196.909 114.886 196.988 114.984 197.034 115.098C197.079 115.213 197.09 115.338 197.065 115.459C197.039 115.579 196.978 115.69 196.89 115.776C196.802 115.862 196.69 115.919 196.568 115.942C196.447 115.964 196.322 115.95 196.209 115.901C196.095 115.852 195.999 115.77 195.933 115.667C195.866 115.563 195.831 115.442 195.834 115.319C195.836 115.155 195.904 114.998 196.022 114.884C196.139 114.77 196.297 114.706 196.461 114.708Z" fill="white"/>
<path d="M167.834 90.8817C167.935 90.8893 168.031 90.9263 168.111 90.988C168.191 91.0496 168.251 91.1334 168.284 91.2288C168.317 91.3242 168.321 91.4272 168.296 91.525C168.271 91.6228 168.218 91.7111 168.143 91.779C168.068 91.8469 167.976 91.8915 167.876 91.9072C167.776 91.9229 167.674 91.9091 167.582 91.8674C167.49 91.8258 167.412 91.7581 167.358 91.6728C167.304 91.5874 167.277 91.4882 167.279 91.3872C167.28 91.3169 167.295 91.2476 167.325 91.1836C167.354 91.1195 167.395 91.0621 167.447 91.0148C167.499 90.9675 167.561 90.9313 167.627 90.9084C167.694 90.8855 167.764 90.8764 167.834 90.8817Z" fill="white"/>
<path d="M144.02 189.485C144.114 189.487 144.207 189.508 144.293 189.546C144.379 189.584 144.457 189.639 144.522 189.707C144.653 189.844 144.725 190.028 144.72 190.218C144.716 190.409 144.636 190.589 144.498 190.72C144.361 190.852 144.177 190.923 143.987 190.918C143.796 190.914 143.616 190.834 143.484 190.697C143.353 190.559 143.282 190.375 143.286 190.185C143.291 189.995 143.37 189.815 143.508 189.683C143.646 189.552 143.83 189.481 144.02 189.485Z" fill="white"/>
<path d="M157.302 253.997C157.444 254 157.582 254.045 157.698 254.127C157.814 254.208 157.903 254.322 157.954 254.455C158.005 254.587 158.016 254.731 157.985 254.869C157.954 255.008 157.883 255.134 157.781 255.232C157.678 255.329 157.549 255.395 157.409 255.419C157.269 255.444 157.126 255.426 156.996 255.369C156.866 255.312 156.757 255.217 156.68 255.098C156.604 254.978 156.566 254.838 156.569 254.697C156.57 254.602 156.591 254.509 156.628 254.423C156.666 254.336 156.721 254.258 156.789 254.193C156.857 254.128 156.938 254.077 157.026 254.043C157.114 254.01 157.208 253.994 157.302 253.997Z" fill="white"/>
<path d="M187.925 178.63C188.118 178.651 188.296 178.742 188.424 178.888C188.553 179.033 188.622 179.221 188.617 179.415C188.613 179.609 188.536 179.794 188.402 179.934C188.267 180.073 188.085 180.158 187.892 180.169C187.785 180.176 187.678 180.16 187.578 180.123C187.478 180.086 187.386 180.029 187.31 179.955C187.233 179.881 187.172 179.792 187.131 179.693C187.09 179.595 187.07 179.488 187.073 179.382C187.075 179.275 187.099 179.17 187.144 179.073C187.189 178.976 187.254 178.89 187.334 178.819C187.414 178.749 187.508 178.696 187.61 178.663C187.711 178.631 187.819 178.619 187.925 178.63Z" fill="white"/>
<path d="M123.373 130.879C123.474 130.886 123.57 130.923 123.65 130.985C123.73 131.047 123.79 131.13 123.823 131.226C123.856 131.321 123.86 131.424 123.835 131.522C123.81 131.62 123.757 131.708 123.682 131.776C123.608 131.844 123.515 131.888 123.415 131.904C123.315 131.92 123.213 131.906 123.121 131.864C123.029 131.823 122.951 131.755 122.897 131.67C122.843 131.584 122.816 131.485 122.818 131.384C122.819 131.314 122.835 131.245 122.864 131.18C122.893 131.116 122.934 131.059 122.987 131.012C123.039 130.964 123.1 130.928 123.166 130.905C123.233 130.882 123.303 130.873 123.373 130.879Z" fill="white"/>
<path d="M94.5127 118.38C94.6567 118.382 94.7968 118.427 94.9152 118.508C95.0337 118.59 95.1253 118.705 95.1783 118.839C95.2314 118.973 95.2436 119.119 95.2133 119.26C95.1831 119.401 95.1117 119.529 95.0084 119.63C94.905 119.73 94.7743 119.797 94.6326 119.823C94.491 119.849 94.3449 119.832 94.2127 119.775C94.0805 119.718 93.9683 119.623 93.8901 119.502C93.8119 119.381 93.7714 119.24 93.7736 119.096C93.775 119.001 93.7953 118.906 93.8332 118.819C93.8711 118.731 93.926 118.651 93.9946 118.585C94.0633 118.518 94.1443 118.466 94.2332 118.431C94.3221 118.395 94.4171 118.378 94.5127 118.38Z" fill="white"/>
<path d="M50.0462 158.749C50.0968 158.749 50.1469 158.759 50.1935 158.778C50.2401 158.798 50.2823 158.827 50.3175 158.863C50.3527 158.9 50.3803 158.942 50.3986 158.99C50.417 159.037 50.4257 159.087 50.4242 159.138C50.4242 159.239 50.3838 159.337 50.3118 159.409C50.2399 159.48 50.1424 159.521 50.0407 159.521C49.939 159.521 49.8415 159.48 49.7695 159.409C49.6976 159.337 49.6572 159.239 49.6572 159.138C49.6557 159.086 49.6647 159.035 49.6837 158.987C49.7027 158.939 49.7313 158.896 49.7677 158.859C49.8042 158.823 49.8477 158.794 49.8956 158.775C49.9435 158.756 49.9947 158.747 50.0462 158.749Z" fill="white"/>
<path d="M132.393 43.5854C132.469 43.5876 132.542 43.612 132.604 43.6557C132.666 43.6994 132.713 43.7603 132.74 43.8308C132.767 43.9014 132.773 43.9783 132.756 44.0521C132.74 44.1258 132.702 44.1931 132.647 44.2453C132.593 44.2976 132.524 44.3326 132.45 44.3458C132.375 44.3591 132.298 44.3501 132.229 44.32C132.16 44.2898 132.101 44.2398 132.06 44.1763C132.019 44.1129 131.998 44.0387 131.999 43.9631C131.999 43.9123 132.01 43.8622 132.031 43.8156C132.051 43.769 132.08 43.7268 132.117 43.6917C132.154 43.6565 132.197 43.629 132.244 43.6108C132.292 43.5925 132.343 43.5839 132.393 43.5854Z" fill="white"/>
<path d="M102.599 78.0327C102.701 78.0327 102.798 78.0731 102.87 78.145C102.942 78.2169 102.982 78.3144 102.982 78.416C102.982 78.5177 102.942 78.6152 102.87 78.6871C102.798 78.7589 102.701 78.7993 102.599 78.7993C102.497 78.7993 102.4 78.7589 102.328 78.6871C102.256 78.6152 102.216 78.5177 102.216 78.416C102.216 78.3144 102.256 78.2169 102.328 78.145C102.4 78.0731 102.497 78.0327 102.599 78.0327Z" fill="white"/>
<path d="M64.1349 182.086C64.2714 182.088 64.4041 182.131 64.5163 182.209C64.6285 182.286 64.715 182.396 64.7649 182.523C64.8149 182.65 64.8259 182.789 64.7967 182.922C64.7675 183.055 64.6993 183.177 64.6009 183.271C64.5024 183.366 64.3781 183.429 64.2436 183.453C64.1092 183.477 63.9707 183.46 63.8458 183.405C63.7208 183.35 63.6151 183.259 63.5419 183.144C63.4686 183.029 63.4313 182.894 63.4346 182.758C63.439 182.576 63.515 182.404 63.6462 182.278C63.7774 182.152 63.953 182.083 64.1349 182.086Z" fill="white"/>
<path d="M113.77 247.386C113.851 247.387 113.931 247.404 114.006 247.436C114.081 247.468 114.148 247.515 114.204 247.573C114.261 247.631 114.305 247.701 114.334 247.776C114.364 247.852 114.378 247.933 114.376 248.014C114.373 248.136 114.335 248.254 114.265 248.355C114.196 248.455 114.098 248.532 113.985 248.577C113.871 248.621 113.747 248.631 113.628 248.605C113.508 248.579 113.399 248.519 113.315 248.431C113.23 248.343 113.173 248.232 113.152 248.112C113.13 247.992 113.144 247.868 113.193 247.757C113.242 247.645 113.323 247.55 113.425 247.484C113.528 247.418 113.648 247.384 113.77 247.386Z" fill="white"/>
<path d="M139.318 61.0062C139.483 61.0106 139.639 61.0794 139.754 61.1979C139.868 61.3163 139.931 61.4749 139.93 61.6395C139.927 61.7625 139.889 61.8822 139.818 61.9832C139.748 62.0843 139.65 62.1623 139.535 62.2073C139.421 62.2523 139.295 62.2624 139.175 62.2363C139.055 62.2101 138.945 62.1489 138.859 62.0603C138.774 61.9718 138.717 61.8599 138.695 61.7388C138.673 61.6177 138.687 61.4929 138.736 61.38C138.786 61.2672 138.867 61.1715 138.971 61.105C139.074 61.0384 139.195 61.0041 139.318 61.0062Z" fill="white"/>
<path d="M79.6128 135.834C79.7163 135.839 79.8159 135.875 79.8992 135.937C79.9825 135.999 80.0458 136.083 80.0812 136.181C80.1165 136.278 80.1224 136.384 80.0981 136.485C80.0738 136.585 80.0204 136.677 79.9444 136.747C79.8685 136.818 79.7735 136.865 79.6712 136.881C79.5689 136.898 79.4639 136.885 79.3693 136.843C79.2746 136.8 79.1945 136.731 79.139 136.643C79.0835 136.556 79.055 136.454 79.057 136.35C79.0584 136.28 79.074 136.21 79.1029 136.145C79.1318 136.081 79.1735 136.023 79.2253 135.974C79.2772 135.926 79.3382 135.889 79.4048 135.865C79.4713 135.841 79.542 135.83 79.6128 135.834Z" fill="white"/>
<path d="M108.451 148.1C108.554 148.101 108.653 148.132 108.738 148.19C108.822 148.248 108.888 148.33 108.926 148.425C108.964 148.52 108.972 148.624 108.951 148.724C108.929 148.825 108.879 148.916 108.805 148.987C108.731 149.059 108.638 149.106 108.537 149.125C108.437 149.143 108.333 149.131 108.239 149.09C108.145 149.049 108.065 148.981 108.01 148.894C107.955 148.808 107.926 148.707 107.929 148.605C107.929 148.537 107.944 148.471 107.97 148.409C107.997 148.346 108.036 148.29 108.084 148.243C108.133 148.196 108.19 148.159 108.253 148.135C108.316 148.11 108.383 148.098 108.451 148.1Z" fill="white"/>
<path d="M88.6327 48.4239C88.7354 48.4251 88.8354 48.4568 88.92 48.515C89.0046 48.5732 89.0699 48.6553 89.1076 48.7507C89.1453 48.8462 89.1538 48.9507 89.1318 49.051C89.1099 49.1513 89.0585 49.2427 88.9843 49.3137C88.9102 49.3847 88.8165 49.432 88.7154 49.4495C88.6142 49.4671 88.5101 49.4542 88.4163 49.4123C88.3225 49.3705 88.2434 49.3017 88.1889 49.2147C88.1344 49.1277 88.107 49.0265 88.1103 48.9239C88.111 48.8565 88.1252 48.79 88.1519 48.7282C88.1787 48.6665 88.2176 48.6106 88.2663 48.564C88.3149 48.5175 88.3724 48.4811 88.4354 48.457C88.4983 48.433 88.5654 48.4217 88.6327 48.4239Z" fill="white"/>
<path d="M59.1886 65.2504C59.3121 65.2516 59.4326 65.2895 59.5345 65.3593C59.6365 65.429 59.7153 65.5276 59.7611 65.6423C59.8068 65.7571 59.8173 65.8829 59.7913 66.0036C59.7653 66.1243 59.7039 66.2346 59.6149 66.3204C59.526 66.4061 59.4136 66.4635 59.2919 66.4851C59.1702 66.5068 59.0449 66.4917 58.9318 66.4419C58.8187 66.3921 58.723 66.3098 58.6569 66.2054C58.5908 66.1011 58.5573 65.9794 58.5606 65.8559C58.5649 65.6929 58.6332 65.538 58.7506 65.4248C58.8681 65.3115 59.0254 65.2489 59.1886 65.2504Z" fill="white"/>
<path d="M15.7781 52.8292C15.8788 52.8368 15.975 52.8737 16.0549 52.9354C16.1349 52.9971 16.195 53.0808 16.2278 53.1762C16.2607 53.2717 16.2648 53.3746 16.2398 53.4724C16.2148 53.5702 16.1616 53.6585 16.087 53.7264C16.0123 53.7944 15.9193 53.8389 15.8196 53.8547C15.7198 53.8704 15.6177 53.8566 15.5257 53.8149C15.4337 53.7732 15.356 53.7055 15.3021 53.6202C15.2481 53.5349 15.2204 53.4356 15.2223 53.3347C15.2236 53.2644 15.2393 53.1951 15.2683 53.131C15.2974 53.067 15.3392 53.0095 15.3912 52.9622C15.4432 52.9149 15.5044 52.8787 15.5709 52.8558C15.6374 52.8329 15.7079 52.8239 15.7781 52.8292Z" fill="white"/>
<path d="M36.558 105.531C36.711 105.533 36.8599 105.58 36.9858 105.667C37.1117 105.754 37.209 105.877 37.2652 106.019C37.3214 106.161 37.3341 106.317 37.3017 106.466C37.2693 106.616 37.1932 106.752 37.083 106.858C36.9729 106.965 36.8337 107.036 36.6831 107.063C36.5325 107.09 36.3773 107.071 36.2371 107.01C36.0969 106.949 35.9781 106.847 35.8957 106.718C35.8133 106.589 35.7711 106.439 35.7744 106.286C35.7758 106.185 35.7973 106.085 35.8376 105.992C35.8778 105.899 35.936 105.815 36.0088 105.745C36.0817 105.675 36.1677 105.62 36.262 105.583C36.3562 105.546 36.4569 105.528 36.558 105.531Z" fill="white"/>
<path d="M234.987 190.396C233.342 190.396 232.008 191.729 232.008 193.374C232.008 195.018 233.342 196.351 234.987 196.351C236.632 196.351 237.966 195.018 237.966 193.374C237.966 191.729 236.632 190.396 234.987 190.396Z" fill="white"/>
<path d="M183.962 268.723L180.267 219.538L160.281 236.137L183.962 268.723Z" stroke="white" stroke-width="0.193599" stroke-miterlimit="10"/>
<path d="M207.421 242.837L180.267 219.538L183.962 268.723L207.421 242.837Z" stroke="white" stroke-width="0.193599" stroke-miterlimit="10"/>
<path d="M243.396 290.133L207.421 242.837L183.962 268.723L243.396 290.133Z" stroke="white" stroke-width="0.193599" stroke-miterlimit="10"/>
<path d="M234.803 193.118L207.421 242.837L271.75 210.617L234.803 193.118Z" stroke="white" stroke-width="0.193599" stroke-miterlimit="10"/>
<path d="M278.853 260.274L207.421 242.837L329.144 234.348L278.853 260.274Z" stroke="white" stroke-width="0.193599" stroke-miterlimit="10"/>
<path d="M124.096 243.82L183.962 268.724L119.716 338.735L124.096 243.82Z" stroke="white" stroke-width="0.193599" stroke-miterlimit="10"/>
<path d="M89.8943 280.245L163.716 316.003L141.263 271.618L89.8943 280.245Z" stroke="white" stroke-width="0.193599" stroke-miterlimit="10"/>
<path d="M185.046 343.101L183.962 268.724L243.396 290.133L185.046 343.101Z" stroke="white" stroke-width="0.193599" stroke-miterlimit="10"/>
<path d="M277.141 322.992L185.046 343.101L243.396 290.133L277.141 322.992Z" stroke="white" stroke-width="0.193599" stroke-miterlimit="10"/>
<path d="M232.069 349.828L185.046 343.101L235.815 245.031L232.069 349.828Z" stroke="white" stroke-width="0.193599" stroke-miterlimit="10"/>
<path d="M277.141 322.991L204.976 319.42L235.815 245.031L277.141 322.991Z" stroke="white" stroke-width="0.193599" stroke-miterlimit="10"/>
<path d="M177.482 185.624L180.267 219.538L234.803 193.118L177.482 185.624Z" stroke="white" stroke-width="0.193599" stroke-miterlimit="10"/>
<path d="M120.239 212.367L180.267 219.538L124.096 243.82L120.239 212.367Z" stroke="white" stroke-width="0.193599" stroke-miterlimit="10"/>
<path d="M351.491 199.557L271.751 210.617L319.629 280.539L351.491 199.557Z" stroke="white" stroke-width="0.193599" stroke-miterlimit="10"/>
<path d="M277.141 322.991L319.629 280.539L279.27 374.715L277.141 322.991Z" stroke="white" stroke-width="0.193599" stroke-miterlimit="10"/>
<path d="M89.8943 280.245L177.482 185.624L217.447 106.497L258.429 162.754" stroke="white" stroke-width="0.193599" stroke-miterlimit="10"/>
<path d="M318.751 86.6376L334.768 43.7187L289.574 51.3126L318.751 86.6376Z" stroke="white" stroke-width="0.774396" stroke-miterlimit="10"/>
<path d="M318.751 86.6376L257.979 102.542L289.574 51.3126L318.751 86.6376Z" stroke="white" stroke-width="0.774396" stroke-miterlimit="10"/>
<path d="M305.813 147.894L257.979 102.542L318.751 86.6376L305.813 147.894Z" stroke="white" stroke-width="0.774396" stroke-miterlimit="10"/>
<path d="M336.824 137.811L305.813 147.894L318.751 86.6376L336.824 137.811Z" stroke="white" stroke-width="0.774396" stroke-miterlimit="10"/>
<path d="M324.62 181.958L336.824 137.811L305.813 147.894L324.62 181.958Z" stroke="white" stroke-width="0.774396" stroke-miterlimit="10"/>
<path d="M271.751 210.617L324.62 181.958L305.813 147.894L271.751 210.617Z" stroke="white" stroke-width="0.774396" stroke-miterlimit="10"/>
<path d="M234.804 193.118L271.75 210.617L235.815 245.031L234.804 193.118Z" stroke="white" stroke-width="0.774396" stroke-miterlimit="10"/>
<path d="M258.429 162.754L271.75 210.617L305.813 147.894L258.429 162.754Z" stroke="white" stroke-width="0.774396" stroke-miterlimit="10"/>
<path d="M329.144 234.348L271.75 210.617L324.62 181.958L329.144 234.348Z" stroke="white" stroke-width="0.774396" stroke-miterlimit="10"/>
<path d="M258.429 162.754L234.803 193.118L215.635 150.322L258.429 162.754Z" stroke="white" stroke-width="0.774396" stroke-miterlimit="10"/>
<path d="M255.522 136.489L258.429 162.754L215.635 150.322L255.522 136.489Z" stroke="white" stroke-width="0.774396" stroke-miterlimit="10"/>
<path d="M257.979 102.542L255.522 136.489L305.813 147.894L257.979 102.542Z" stroke="white" stroke-width="0.774396" stroke-miterlimit="10"/>
<path d="M217.447 106.497L257.979 102.542L255.522 136.489L217.447 106.497Z" stroke="white" stroke-width="0.774396" stroke-miterlimit="10"/>
<path d="M215.635 150.322L177.482 185.624L234.803 193.118L215.635 150.322Z" stroke="white" stroke-width="0.774396" stroke-miterlimit="10"/>
<path d="M235.815 245.031L198.39 222.944L234.803 193.118L235.815 245.031Z" stroke="white" stroke-width="0.774396" stroke-miterlimit="10"/>
<path d="M278.853 260.274L271.75 210.617L235.815 245.031L278.853 260.274Z" stroke="white" stroke-width="0.774396" stroke-miterlimit="10"/>
<path d="M329.144 234.348L278.853 260.274L319.629 280.539L329.144 234.348Z" stroke="white" stroke-width="0.774396" stroke-miterlimit="10"/>
<path d="M361.322 238.931L329.144 234.348L351.491 199.557L361.322 238.931Z" stroke="white" stroke-width="0.774396" stroke-miterlimit="10"/>
<path d="M324.62 181.958L382.875 176.092L336.824 137.811L324.62 181.958Z" stroke="white" stroke-width="0.774396" stroke-miterlimit="10"/>
<path d="M351.491 199.557L324.62 181.958L382.875 176.092L351.491 199.557Z" stroke="white" stroke-width="0.774396" stroke-miterlimit="10"/>
<path d="M243.396 290.133L278.853 260.274L235.815 245.031L243.396 290.133Z" stroke="white" stroke-width="0.774396" stroke-miterlimit="10"/>
<path d="M183.962 268.723L235.815 245.031L198.39 222.944L183.962 268.723Z" stroke="white" stroke-width="0.774396" stroke-miterlimit="10"/>
<path d="M177.482 185.624L198.39 222.944L160.282 236.137L177.482 185.624Z" stroke="white" stroke-width="0.774396" stroke-miterlimit="10"/>
<path d="M175.204 127.507L215.635 150.322L177.482 185.624L175.204 127.507Z" stroke="white" stroke-width="0.774396" stroke-miterlimit="10"/>
<path d="M217.447 106.497L215.635 150.322L175.204 127.507L217.447 106.497Z" stroke="white" stroke-width="0.774396" stroke-miterlimit="10"/>
<path d="M228.929 72.1054L257.979 102.542L217.447 106.497L228.929 72.1054Z" stroke="white" stroke-width="0.774396" stroke-miterlimit="10"/>
<path d="M134.644 157.971L175.204 127.507L177.482 185.624L134.644 157.971Z" stroke="white" stroke-width="0.774396" stroke-miterlimit="10"/>
<path d="M120.239 212.367L177.482 185.624L160.281 236.137L120.239 212.367Z" stroke="white" stroke-width="0.774396" stroke-miterlimit="10"/>
<path d="M141.263 271.618L160.281 236.137L183.962 268.723L141.263 271.618Z" stroke="white" stroke-width="0.774396" stroke-miterlimit="10"/>
<path d="M243.396 290.133L204.976 319.42L183.962 268.723L243.396 290.133Z" stroke="white" stroke-width="0.774396" stroke-miterlimit="10"/>
<path d="M163.716 316.003L183.962 268.724L141.263 271.618L163.716 316.003Z" stroke="white" stroke-width="0.774396" stroke-miterlimit="10"/>
<path d="M277.141 322.991L243.396 290.133L278.853 260.274L277.141 322.991Z" stroke="white" stroke-width="0.774396" stroke-miterlimit="10"/>
<path d="M232.069 349.828L243.396 290.133L204.976 319.42L232.069 349.828Z" stroke="white" stroke-width="0.774396" stroke-miterlimit="10"/>
<path d="M314.855 321.292L277.141 322.991L278.853 260.274L314.855 321.292Z" stroke="white" stroke-width="0.774396" stroke-miterlimit="10"/>
<path d="M319.629 280.539L314.855 321.292L344.8 301.993L319.629 280.539Z" stroke="white" stroke-width="0.774396" stroke-miterlimit="10"/>
<path d="M343.316 257.086L329.144 234.348L361.322 238.931L343.316 257.086Z" stroke="white" stroke-width="0.774396" stroke-miterlimit="10"/>
<path d="M319.629 280.539L343.316 257.086L344.8 301.993L319.629 280.539Z" stroke="white" stroke-width="0.774396" stroke-miterlimit="10"/>
<path d="M403.527 298.91L344.8 301.993L343.316 257.086L403.527 298.91Z" stroke="white" stroke-width="0.774396" stroke-miterlimit="10"/>
<path d="M405.494 255.413L343.316 257.086L403.527 298.91L405.494 255.413Z" stroke="white" stroke-width="0.774396" stroke-miterlimit="10"/>
<path d="M361.322 238.931L389.205 213.733L351.491 199.557L361.322 238.931Z" stroke="white" stroke-width="0.774396" stroke-miterlimit="10"/>
<path d="M119.716 338.735L163.716 316.003L141.263 271.618L119.716 338.735Z" stroke="white" stroke-width="0.774396" stroke-miterlimit="10"/>
<path d="M89.8942 280.245L141.263 271.618L119.716 338.735L89.8942 280.245Z" stroke="white" stroke-width="0.774396" stroke-miterlimit="10"/>
<path d="M124.096 243.82L141.263 271.618L160.281 236.137L124.096 243.82Z" stroke="white" stroke-width="0.774396" stroke-miterlimit="10"/>
<path d="M90.2277 227.038L124.096 243.82L89.8943 280.245L90.2277 227.038Z" stroke="white" stroke-width="0.774396" stroke-miterlimit="10"/>
<path d="M120.239 212.367L124.096 243.82L160.281 236.137L120.239 212.367Z" stroke="white" stroke-width="0.774396" stroke-miterlimit="10"/>
<path d="M46.0836 100.325L42.7435 165.393L78.6735 154.066L105.856 188.38L134.644 157.971L235.815 245.031L215.635 150.322L258.429 162.754L235.815 245.031L305.813 147.894L382.875 176.092L271.75 210.617" stroke="white" stroke-width="0.193599" stroke-miterlimit="10"/>
<path d="M150.644 104.52L175.204 127.507L189.314 83.7545L150.644 104.52Z" stroke="white" stroke-width="0.774396" stroke-miterlimit="10"/>
<path d="M139.891 68.1557L150.645 104.52L112.464 110.93" stroke="white" stroke-width="0.774396" stroke-miterlimit="10"/>
<path d="M89.8943 280.245L120.239 212.367L90.2277 227.038L46.8506 240.748L43.2381 202.29L79.0625 215.805" stroke="white" stroke-width="0.774396" stroke-miterlimit="10"/>
<path d="M228.929 72.1055L259.574 32.8419L229.012 0.388794L179.2 44.6076" stroke="white" stroke-width="0.774396" stroke-miterlimit="10"/>
<path d="M181.3 268.224C181.4 267.698 181.652 267.214 182.027 266.832C182.402 266.45 182.881 266.187 183.405 266.077C183.929 265.968 184.473 266.016 184.97 266.215C185.466 266.415 185.892 266.757 186.194 267.198C186.496 267.64 186.661 268.161 186.666 268.696C186.672 269.231 186.519 269.755 186.227 270.203C185.934 270.651 185.516 271.003 185.024 271.213C184.532 271.423 183.988 271.483 183.462 271.384C182.757 271.251 182.133 270.843 181.728 270.251C181.322 269.658 181.169 268.929 181.3 268.224Z" fill="white"/>
<path d="M87.5823 279.811C87.6816 279.286 87.9344 278.801 88.309 278.419C88.6836 278.037 89.163 277.775 89.6868 277.665C90.2105 277.556 90.7551 277.604 91.2516 277.803C91.7481 278.003 92.1742 278.345 92.4762 278.786C92.7783 279.228 92.9426 279.749 92.9484 280.284C92.9541 280.819 92.8012 281.343 92.5088 281.791C92.2164 282.239 91.7977 282.591 91.3057 282.801C90.8136 283.011 90.2703 283.071 89.7443 282.972C89.3942 282.908 89.0604 282.774 88.762 282.58C88.4636 282.386 88.2066 282.135 88.0057 281.841C87.8048 281.548 87.6639 281.217 87.5913 280.869C87.5186 280.52 87.5156 280.161 87.5823 279.811Z" fill="white"/>
<path d="M233.497 244.603C233.582 244.151 233.8 243.733 234.122 243.404C234.444 243.075 234.857 242.849 235.308 242.754C235.759 242.66 236.228 242.701 236.655 242.873C237.082 243.045 237.449 243.339 237.709 243.72C237.969 244.1 238.11 244.549 238.115 245.009C238.119 245.47 237.987 245.921 237.735 246.306C237.483 246.692 237.122 246.994 236.698 247.174C236.274 247.354 235.806 247.405 235.354 247.32C234.747 247.205 234.211 246.855 233.863 246.345C233.515 245.836 233.384 245.209 233.497 244.603Z" fill="white"/>
<path d="M158.203 235.748C158.28 235.336 158.479 234.956 158.773 234.656C159.067 234.357 159.443 234.152 159.855 234.067C160.266 233.981 160.693 234.02 161.082 234.178C161.47 234.336 161.803 234.606 162.039 234.954C162.274 235.302 162.4 235.711 162.401 236.131C162.403 236.551 162.28 236.961 162.047 237.311C161.815 237.66 161.484 237.933 161.096 238.094C160.709 238.255 160.282 238.297 159.87 238.215C159.324 238.105 158.843 237.784 158.531 237.323C158.219 236.861 158.102 236.296 158.203 235.748Z" fill="white"/>
<path d="M241.045 289.694C241.13 289.229 241.352 288.799 241.681 288.46C242.011 288.121 242.434 287.887 242.897 287.788C243.36 287.69 243.842 287.731 244.281 287.906C244.721 288.081 245.098 288.383 245.366 288.773C245.634 289.163 245.78 289.624 245.785 290.097C245.79 290.57 245.655 291.034 245.397 291.43C245.138 291.826 244.767 292.137 244.332 292.322C243.897 292.508 243.416 292.56 242.951 292.472C242.331 292.354 241.782 291.996 241.425 291.476C241.068 290.955 240.931 290.315 241.045 289.694Z" fill="white"/>
<path d="M316.45 279.945C316.568 279.317 316.869 278.739 317.315 278.282C317.762 277.826 318.334 277.512 318.959 277.381C319.584 277.249 320.234 277.306 320.826 277.544C321.419 277.781 321.928 278.189 322.289 278.716C322.649 279.243 322.846 279.865 322.853 280.503C322.86 281.142 322.677 281.768 322.328 282.302C321.98 282.837 321.48 283.256 320.892 283.507C320.305 283.758 319.657 283.829 319.029 283.711C318.188 283.552 317.445 283.066 316.961 282.36C316.478 281.655 316.294 280.786 316.45 279.945Z" fill="white"/>
<path d="M268.883 210.078C268.989 209.511 269.262 208.989 269.666 208.577C270.069 208.164 270.586 207.881 271.151 207.763C271.716 207.644 272.303 207.696 272.838 207.911C273.374 208.126 273.833 208.495 274.159 208.971C274.485 209.448 274.662 210.01 274.668 210.586C274.674 211.163 274.509 211.729 274.193 212.212C273.878 212.695 273.426 213.073 272.895 213.3C272.365 213.526 271.779 213.59 271.211 213.483C270.452 213.339 269.78 212.9 269.343 212.262C268.907 211.623 268.741 210.838 268.883 210.078Z" fill="white"/>
<path d="M349.468 198.307C349.574 197.739 349.845 197.216 350.249 196.803C350.652 196.39 351.169 196.106 351.734 195.987C352.298 195.868 352.886 195.919 353.422 196.133C353.958 196.348 354.418 196.717 354.744 197.193C355.07 197.669 355.248 198.231 355.254 198.808C355.26 199.385 355.095 199.951 354.78 200.434C354.464 200.918 354.012 201.296 353.481 201.523C352.95 201.749 352.364 201.813 351.797 201.706C351.037 201.564 350.366 201.125 349.929 200.488C349.492 199.851 349.327 199.066 349.468 198.307Z" fill="white"/>
<path d="M212.017 149.644C211.884 150.359 211.965 151.097 212.251 151.766C212.537 152.434 213.015 153.003 213.625 153.4C214.234 153.797 214.948 154.005 215.675 153.997C216.402 153.989 217.111 153.765 217.712 153.354C218.312 152.944 218.777 152.364 219.048 151.689C219.319 151.015 219.384 150.275 219.234 149.563C219.085 148.851 218.727 148.2 218.207 147.691C217.687 147.183 217.028 146.84 216.313 146.705C215.838 146.616 215.35 146.621 214.877 146.721C214.404 146.82 213.955 147.012 213.556 147.285C213.157 147.558 212.816 147.906 212.552 148.311C212.288 148.716 212.106 149.169 212.017 149.644Z" fill="white"/>
<path d="M339.698 256.408C339.564 257.122 339.646 257.86 339.932 258.529C340.218 259.197 340.696 259.766 341.305 260.163C341.914 260.56 342.627 260.767 343.354 260.76C344.082 260.752 344.79 260.529 345.39 260.118C345.991 259.708 346.456 259.129 346.728 258.455C346.999 257.781 347.065 257.041 346.916 256.33C346.767 255.618 346.41 254.967 345.891 254.457C345.372 253.948 344.714 253.604 343.999 253.469C343.039 253.29 342.047 253.499 341.241 254.05C340.435 254.601 339.88 255.449 339.698 256.408Z" fill="white"/>
<path d="M132.982 157.66C132.928 157.982 132.97 158.314 133.102 158.613C133.235 158.912 133.453 159.165 133.729 159.341C134.005 159.518 134.326 159.609 134.653 159.603C134.981 159.598 135.299 159.497 135.569 159.312C135.839 159.127 136.049 158.867 136.172 158.563C136.295 158.26 136.326 157.928 136.261 157.607C136.196 157.286 136.038 156.992 135.807 156.76C135.576 156.529 135.282 156.37 134.961 156.304C134.742 156.263 134.517 156.266 134.299 156.312C134.081 156.358 133.874 156.446 133.691 156.572C133.507 156.698 133.35 156.859 133.228 157.046C133.107 157.232 133.023 157.441 132.982 157.66Z" fill="white"/>
<path d="M118.594 212.056C118.534 212.379 118.571 212.714 118.701 213.016C118.831 213.319 119.047 213.576 119.323 213.756C119.599 213.936 119.922 214.03 120.252 214.026C120.581 214.022 120.902 213.921 121.174 213.735C121.446 213.549 121.657 213.287 121.78 212.982C121.903 212.676 121.932 212.341 121.865 212.019C121.798 211.697 121.636 211.401 121.401 211.171C121.166 210.94 120.868 210.784 120.544 210.722C120.329 210.681 120.107 210.683 119.892 210.728C119.677 210.773 119.473 210.86 119.292 210.984C119.111 211.108 118.956 211.266 118.836 211.45C118.716 211.634 118.634 211.84 118.594 212.056Z" fill="white"/>
<path d="M88.5828 226.705C88.5227 227.028 88.5599 227.363 88.6898 227.665C88.8196 227.968 89.0362 228.225 89.3122 228.405C89.5883 228.585 89.9114 228.679 90.2409 228.675C90.5703 228.671 90.8912 228.57 91.1632 228.384C91.4351 228.198 91.6459 227.936 91.7689 227.631C91.8918 227.325 91.9215 226.99 91.8542 226.668C91.7868 226.345 91.6254 226.05 91.3904 225.819C91.1553 225.589 90.8572 225.433 90.5335 225.371C90.3178 225.33 90.0961 225.332 89.8812 225.377C89.6663 225.422 89.4623 225.509 89.2811 225.633C89.0998 225.757 88.9448 225.915 88.825 226.099C88.7051 226.283 88.6229 226.489 88.5828 226.705Z" fill="white"/>
<path d="M77.3286 215.278C77.2688 215.601 77.3061 215.935 77.4359 216.238C77.5656 216.54 77.782 216.797 78.0578 216.977C78.3336 217.156 78.6564 217.25 78.9855 217.247C79.3146 217.244 79.6354 217.143 79.9074 216.958C80.1793 216.772 80.3903 216.511 80.5138 216.206C80.6372 215.9 80.6676 215.566 80.601 215.244C80.5344 214.921 80.3739 214.626 80.1397 214.395C79.9055 214.164 79.6081 214.007 79.2849 213.944C79.0688 213.903 78.8465 213.904 78.631 213.948C78.4154 213.993 78.2108 214.08 78.0289 214.204C77.847 214.328 77.6915 214.486 77.5713 214.671C77.4511 214.855 77.3686 215.061 77.3286 215.278Z" fill="white"/>
<path d="M227.001 71.7166C226.94 72.0403 226.978 72.3746 227.107 72.6773C227.237 72.9799 227.454 73.2373 227.73 73.417C228.006 73.5967 228.329 73.6907 228.659 73.687C228.988 73.6833 229.309 73.5821 229.581 73.3962C229.853 73.2104 230.064 72.9482 230.187 72.6427C230.31 72.3372 230.339 72.0021 230.272 71.6798C230.205 71.3574 230.043 71.0623 229.808 70.8315C229.573 70.6008 229.275 70.4448 228.951 70.3833C228.736 70.3423 228.514 70.3443 228.299 70.3892C228.084 70.4341 227.88 70.521 227.699 70.6448C227.518 70.7687 227.363 70.9272 227.243 71.1111C227.123 71.295 227.041 71.5008 227.001 71.7166Z" fill="white"/>
<path d="M122.406 243.787C122.346 244.11 122.384 244.445 122.513 244.747C122.643 245.05 122.86 245.307 123.136 245.487C123.412 245.667 123.735 245.761 124.064 245.757C124.394 245.753 124.715 245.652 124.987 245.466C125.259 245.28 125.47 245.018 125.592 244.713C125.715 244.407 125.745 244.072 125.678 243.75C125.61 243.427 125.449 243.132 125.214 242.901C124.979 242.671 124.681 242.515 124.357 242.453C124.141 242.412 123.92 242.414 123.705 242.459C123.49 242.504 123.286 242.591 123.105 242.715C122.923 242.839 122.768 242.997 122.649 243.181C122.529 243.365 122.446 243.571 122.406 243.787Z" fill="white"/>
<path d="M41.5043 202.462C41.4445 202.785 41.4818 203.119 41.6116 203.422C41.7413 203.724 41.9577 203.981 42.2335 204.161C42.5092 204.341 42.832 204.435 43.1612 204.431C43.4903 204.428 43.8111 204.327 44.0831 204.142C44.355 203.956 44.566 203.695 44.6894 203.39C44.8129 203.085 44.8432 202.75 44.7766 202.428C44.7101 202.106 44.5496 201.81 44.3154 201.579C44.0812 201.348 43.7838 201.191 43.4606 201.129C43.2445 201.087 43.0222 201.088 42.8067 201.133C42.5911 201.177 42.3864 201.264 42.2046 201.388C42.0227 201.512 41.8672 201.671 41.747 201.855C41.6268 202.039 41.5443 202.246 41.5043 202.462Z" fill="white"/>
<path d="M233.881 192.946C233.847 193.128 233.868 193.316 233.941 193.486C234.014 193.656 234.135 193.8 234.29 193.902C234.445 194.003 234.626 194.056 234.811 194.055C234.996 194.053 235.177 193.998 235.33 193.894C235.483 193.791 235.603 193.644 235.673 193.473C235.744 193.302 235.762 193.114 235.726 192.933C235.69 192.752 235.601 192.585 235.47 192.454C235.34 192.323 235.174 192.233 234.992 192.196C234.87 192.17 234.744 192.169 234.621 192.193C234.498 192.217 234.381 192.266 234.278 192.336C234.174 192.406 234.085 192.496 234.017 192.601C233.949 192.706 233.903 192.823 233.881 192.946Z" fill="white"/>
<path d="M175.848 185.319C175.908 184.994 176.063 184.695 176.293 184.458C176.523 184.222 176.819 184.059 177.142 183.99C177.465 183.922 177.801 183.95 178.107 184.073C178.414 184.196 178.677 184.406 178.864 184.679C179.05 184.951 179.152 185.273 179.155 185.603C179.159 185.933 179.064 186.256 178.883 186.532C178.703 186.809 178.444 187.025 178.14 187.154C177.836 187.283 177.501 187.319 177.177 187.258C176.744 187.175 176.361 186.925 176.112 186.562C175.863 186.199 175.769 185.752 175.848 185.319Z" fill="white"/>
<path d="M149.022 104.214C149.082 103.889 149.237 103.59 149.468 103.353C149.698 103.117 149.994 102.954 150.317 102.886C150.64 102.818 150.977 102.847 151.283 102.97C151.59 103.093 151.853 103.305 152.039 103.578C152.225 103.85 152.326 104.172 152.329 104.503C152.331 104.833 152.236 105.156 152.054 105.432C151.873 105.708 151.613 105.924 151.309 106.052C151.005 106.181 150.669 106.215 150.344 106.153C149.913 106.069 149.532 105.819 149.284 105.456C149.036 105.092 148.942 104.646 149.022 104.214Z" fill="white"/>
<path d="M196.517 222.594C196.586 222.223 196.764 221.881 197.027 221.612C197.291 221.342 197.628 221.157 197.997 221.079C198.366 221.001 198.75 221.034 199.1 221.174C199.45 221.314 199.751 221.555 199.964 221.866C200.177 222.177 200.293 222.544 200.297 222.921C200.302 223.298 200.194 223.668 199.988 223.984C199.782 224.299 199.487 224.547 199.14 224.695C198.794 224.843 198.411 224.885 198.04 224.816C197.543 224.723 197.104 224.436 196.818 224.02C196.533 223.603 196.425 223.09 196.517 222.594Z" fill="white"/>
<path d="M178.561 219.283C178.609 219.025 178.733 218.787 178.917 218.599C179.101 218.411 179.337 218.283 179.594 218.229C179.852 218.175 180.119 218.199 180.363 218.297C180.607 218.396 180.816 218.564 180.964 218.781C181.112 218.998 181.192 219.255 181.194 219.517C181.196 219.78 181.12 220.038 180.976 220.257C180.832 220.477 180.626 220.649 180.384 220.751C180.142 220.854 179.875 220.882 179.616 220.833C179.271 220.767 178.966 220.567 178.768 220.276C178.57 219.985 178.495 219.628 178.561 219.283Z" fill="white"/>
<path d="M104.144 188.124C104.192 187.866 104.316 187.628 104.5 187.441C104.684 187.253 104.919 187.124 105.176 187.07C105.433 187.016 105.7 187.039 105.944 187.137C106.188 187.235 106.397 187.402 106.546 187.619C106.694 187.836 106.775 188.091 106.778 188.354C106.781 188.616 106.706 188.874 106.562 189.094C106.419 189.314 106.213 189.486 105.972 189.59C105.73 189.693 105.464 189.722 105.206 189.674C104.86 189.608 104.554 189.408 104.355 189.118C104.157 188.827 104.081 188.47 104.144 188.124Z" fill="white"/>
<path d="M77.3676 153.821C77.416 153.563 77.5399 153.325 77.7236 153.138C77.9072 152.95 78.1425 152.821 78.3995 152.767C78.6565 152.713 78.9238 152.736 79.1676 152.834C79.4114 152.932 79.6207 153.099 79.7691 153.316C79.9175 153.533 79.9983 153.788 80.0013 154.051C80.0042 154.314 79.9292 154.571 79.7858 154.791C79.6424 155.011 79.437 155.183 79.1955 155.287C78.954 155.39 78.6873 155.419 78.4291 155.371C78.2575 155.339 78.094 155.274 77.9478 155.178C77.8016 155.083 77.6756 154.96 77.577 154.816C77.4784 154.672 77.4092 154.51 77.3733 154.339C77.3373 154.169 77.3354 153.993 77.3676 153.821Z" fill="white"/>
<path d="M140.196 271.418C140.245 271.16 140.369 270.922 140.552 270.734C140.736 270.546 140.971 270.417 141.228 270.363C141.485 270.309 141.753 270.333 141.996 270.43C142.24 270.528 142.449 270.696 142.598 270.913C142.746 271.129 142.827 271.385 142.83 271.647C142.833 271.91 142.758 272.167 142.615 272.387C142.471 272.607 142.266 272.78 142.024 272.883C141.783 272.986 141.516 273.016 141.258 272.968C140.912 272.902 140.606 272.702 140.408 272.411C140.209 272.121 140.133 271.764 140.196 271.418Z" fill="white"/>
<path d="M256.412 162.376C256.487 161.978 256.678 161.611 256.963 161.321C257.247 161.032 257.61 160.833 258.007 160.75C258.404 160.667 258.817 160.703 259.193 160.855C259.569 161.007 259.892 161.266 260.121 161.601C260.349 161.936 260.473 162.331 260.477 162.737C260.481 163.142 260.365 163.54 260.143 163.879C259.92 164.218 259.603 164.484 259.229 164.643C258.856 164.801 258.444 164.846 258.045 164.77C257.511 164.669 257.039 164.36 256.733 163.911C256.426 163.462 256.311 162.91 256.412 162.376Z" fill="white"/>
<path d="M303.179 147.4C303.277 146.879 303.527 146.4 303.898 146.022C304.268 145.643 304.743 145.383 305.261 145.275C305.78 145.166 306.319 145.213 306.81 145.411C307.301 145.608 307.723 145.947 308.022 146.384C308.321 146.821 308.484 147.337 308.49 147.866C308.496 148.395 308.344 148.915 308.055 149.358C307.765 149.802 307.351 150.149 306.864 150.357C306.377 150.565 305.839 150.625 305.318 150.527C304.62 150.395 304.003 149.992 303.602 149.405C303.201 148.819 303.049 148.098 303.179 147.4Z" fill="white"/>
<path d="M321.986 181.464C322.084 180.943 322.334 180.464 322.705 180.086C323.075 179.707 323.55 179.447 324.068 179.339C324.587 179.23 325.126 179.277 325.617 179.475C326.108 179.672 326.53 180.011 326.829 180.448C327.128 180.885 327.291 181.401 327.297 181.93C327.303 182.46 327.151 182.979 326.862 183.422C326.572 183.866 326.158 184.213 325.671 184.421C325.184 184.629 324.646 184.689 324.125 184.591C323.779 184.526 323.449 184.394 323.155 184.202C322.86 184.01 322.606 183.761 322.407 183.471C322.208 183.18 322.069 182.853 321.996 182.509C321.924 182.165 321.921 181.809 321.986 181.464Z" fill="white"/>
<path d="M256.284 102.225C256.347 101.895 256.506 101.591 256.742 101.352C256.977 101.112 257.279 100.948 257.608 100.879C257.937 100.811 258.279 100.842 258.591 100.967C258.903 101.093 259.17 101.309 259.359 101.586C259.549 101.864 259.652 102.191 259.655 102.527C259.658 102.863 259.561 103.193 259.377 103.474C259.193 103.755 258.93 103.976 258.621 104.107C258.311 104.239 257.97 104.276 257.64 104.214C257.42 104.173 257.21 104.088 257.023 103.966C256.836 103.844 256.675 103.686 256.549 103.501C256.423 103.316 256.335 103.108 256.289 102.89C256.244 102.671 256.242 102.445 256.284 102.225Z" fill="white"/>
<path d="M215.474 106.125C215.547 105.735 215.734 105.375 216.011 105.091C216.289 104.808 216.644 104.613 217.032 104.531C217.421 104.449 217.825 104.484 218.193 104.632C218.562 104.78 218.878 105.033 219.102 105.361C219.326 105.688 219.448 106.075 219.452 106.472C219.457 106.868 219.343 107.257 219.126 107.59C218.909 107.922 218.598 108.182 218.233 108.338C217.868 108.493 217.465 108.537 217.075 108.464C216.816 108.416 216.569 108.317 216.348 108.173C216.127 108.03 215.937 107.844 215.788 107.627C215.64 107.409 215.535 107.165 215.481 106.907C215.427 106.649 215.425 106.384 215.474 106.125Z" fill="white"/>
<path d="M187.586 83.4268C187.66 83.0385 187.847 82.6807 188.124 82.3986C188.401 82.1165 188.755 81.9228 189.142 81.8418C189.529 81.7608 189.931 81.7963 190.298 81.9437C190.665 82.0911 190.98 82.3439 191.203 82.6701C191.426 82.9963 191.548 83.3813 191.552 83.7765C191.557 84.1717 191.444 84.5593 191.228 84.8905C191.013 85.2217 190.704 85.4815 190.34 85.6373C189.977 85.793 189.575 85.8376 189.187 85.7655C188.928 85.7174 188.681 85.6188 188.46 85.4751C188.239 85.3315 188.049 85.1457 187.9 84.9284C187.752 84.7111 187.647 84.4666 187.593 84.2089C187.539 83.9512 187.537 83.6855 187.586 83.4268Z" fill="white"/>
<path d="M172.558 127.007C172.657 126.483 172.908 126 173.281 125.619C173.654 125.238 174.131 124.976 174.653 124.867C175.175 124.757 175.717 124.804 176.212 125.003C176.707 125.202 177.132 125.543 177.433 125.982C177.734 126.422 177.897 126.942 177.903 127.475C177.909 128.008 177.756 128.53 177.464 128.976C177.173 129.423 176.755 129.772 176.265 129.981C175.775 130.19 175.233 130.249 174.709 130.151C174.008 130.017 173.387 129.612 172.984 129.023C172.581 128.433 172.428 127.709 172.558 127.007Z" fill="white"/>
<path d="M276.902 259.907C276.975 259.521 277.161 259.164 277.437 258.883C277.712 258.602 278.065 258.41 278.45 258.329C278.836 258.249 279.236 258.284 279.601 258.431C279.966 258.578 280.28 258.83 280.501 259.155C280.723 259.48 280.843 259.864 280.847 260.257C280.851 260.651 280.737 261.037 280.522 261.366C280.306 261.695 279.997 261.952 279.635 262.106C279.273 262.26 278.873 262.303 278.486 262.229C278.229 262.182 277.984 262.084 277.765 261.942C277.546 261.799 277.357 261.615 277.21 261.399C277.063 261.183 276.96 260.94 276.907 260.684C276.854 260.428 276.852 260.164 276.902 259.907Z" fill="white"/>
<path d="M317.023 85.0488C317.095 84.6623 317.281 84.306 317.556 84.025C317.831 83.7439 318.184 83.5507 318.569 83.4698C318.954 83.3889 319.354 83.424 319.719 83.5705C320.085 83.717 320.398 83.9685 320.62 84.2931C320.842 84.6176 320.963 85.0007 320.968 85.394C320.972 85.7872 320.86 86.1729 320.645 86.5024C320.43 86.8318 320.122 87.0901 319.76 87.2447C319.398 87.3993 318.999 87.4432 318.612 87.3709C318.355 87.3228 318.11 87.2246 317.891 87.0819C317.672 86.9392 317.484 86.7547 317.336 86.539C317.188 86.3234 317.085 86.0808 317.031 85.8251C316.977 85.5694 316.974 85.3056 317.023 85.0488Z" fill="white"/>
</g>
<defs>
<clipPath id="clip0_19_5065">
<rect width="405.783" height="375.582" fill="white" transform="translate(405.783 375.582) rotate(-180)"/>
</clipPath>
</defs>
</svg>
