<svg width="341" height="261" viewBox="0 0 341 261" fill="none" xmlns="http://www.w3.org/2000/svg">
<g style="mix-blend-mode:soft-light" clip-path="url(#clip0_19_4921)">
<path d="M58.8958 50.6204C58.7936 50.6182 58.6944 50.5857 58.6107 50.5271C58.5269 50.4686 58.4625 50.3865 58.4254 50.2912C58.3883 50.196 58.3803 50.092 58.4024 49.9922C58.4245 49.8925 58.4757 49.8015 58.5495 49.7308C58.6233 49.6602 58.7165 49.6129 58.8171 49.5952C58.9178 49.5774 59.0214 49.5898 59.115 49.6309C59.2086 49.6721 59.2879 49.74 59.3428 49.8261C59.3978 49.9123 59.426 50.0128 59.4238 50.1149C59.4224 50.1828 59.4076 50.2496 59.3802 50.3118C59.3529 50.3739 59.3136 50.43 59.2646 50.477C59.2156 50.5239 59.1578 50.5608 59.0945 50.5854C59.0312 50.61 58.9637 50.6219 58.8958 50.6204Z" fill="white"/>
<path d="M102.284 63.3806C102.14 63.3783 102 63.3334 101.881 63.2513C101.762 63.1693 101.671 63.0539 101.618 62.9197C101.565 62.7856 101.553 62.6388 101.584 62.498C101.615 62.3571 101.687 62.2286 101.791 62.1286C101.894 62.0286 102.026 61.9618 102.168 61.9365C102.31 61.9112 102.456 61.9287 102.588 61.9866C102.72 62.0446 102.832 62.1404 102.909 62.262C102.987 62.3836 103.026 62.5254 103.023 62.6695C103.019 62.8616 102.939 63.0441 102.8 63.1773C102.662 63.3105 102.476 63.3836 102.284 63.3806Z" fill="white"/>
<path d="M117.556 28.3222C117.455 28.3222 117.357 28.2818 117.285 28.2099C117.213 28.138 117.173 28.0405 117.173 27.9388C117.173 27.8372 117.213 27.7397 117.285 27.6678C117.357 27.5959 117.455 27.5555 117.556 27.5555C117.607 27.5563 117.656 27.5669 117.703 27.5868C117.749 27.6068 117.791 27.6356 117.826 27.6717C117.861 27.7078 117.889 27.7505 117.907 27.7973C117.926 27.8441 117.935 27.8941 117.934 27.9444C117.931 28.0437 117.891 28.1382 117.82 28.2084C117.75 28.2787 117.656 28.3194 117.556 28.3222Z" fill="white"/>
<path d="M48.931 184.616C48.8806 184.615 48.8309 184.604 48.7847 184.584C48.7384 184.564 48.6965 184.536 48.6614 184.499C48.6264 184.463 48.5987 184.421 48.5801 184.374C48.5615 184.327 48.5523 184.277 48.5531 184.227C48.5538 184.176 48.5646 184.126 48.5849 184.079C48.6052 184.033 48.6346 183.99 48.6713 183.955C48.708 183.92 48.7513 183.893 48.7988 183.874C48.8462 183.856 48.8968 183.847 48.9477 183.849C48.998 183.85 49.0476 183.862 49.0936 183.882C49.1396 183.903 49.181 183.932 49.2156 183.969C49.2502 184.006 49.2772 184.049 49.2951 184.096C49.3131 184.143 49.3215 184.193 49.32 184.243C49.3193 184.293 49.3086 184.343 49.2886 184.389C49.2686 184.435 49.2397 184.476 49.2035 184.511C49.1673 184.546 49.1245 184.573 49.0777 184.591C49.031 184.609 48.9811 184.617 48.931 184.616Z" fill="white"/>
<path d="M79.6757 103.466C79.5999 103.465 79.5261 103.442 79.4637 103.399C79.4012 103.356 79.353 103.295 79.325 103.225C79.297 103.154 79.2905 103.077 79.3064 103.003C79.3222 102.929 79.3597 102.861 79.4141 102.808C79.4685 102.755 79.5374 102.72 79.612 102.706C79.6866 102.692 79.7635 102.701 79.8332 102.731C79.9028 102.761 79.962 102.811 80.0032 102.875C80.0444 102.938 80.0659 103.013 80.0648 103.089C80.0648 103.139 80.0547 103.189 80.035 103.236C80.0153 103.282 79.9865 103.324 79.9502 103.36C79.9139 103.395 79.8709 103.423 79.8238 103.441C79.7766 103.459 79.7263 103.468 79.6757 103.466Z" fill="white"/>
<path d="M66.054 56.7089C65.9304 56.7077 65.81 56.6698 65.7081 56.6C65.6061 56.5302 65.5273 56.4317 65.4815 56.3169C65.4358 56.2022 65.4253 56.0764 65.4513 55.9557C65.4773 55.8349 65.5387 55.7247 65.6277 55.6389C65.7166 55.5532 65.8291 55.4958 65.9507 55.4742C66.0724 55.4525 66.1977 55.4676 66.3108 55.5174C66.4239 55.5672 66.5196 55.6495 66.5857 55.7539C66.6518 55.8582 66.6853 55.9799 66.682 56.1034C66.6813 56.1846 66.6644 56.2648 66.6323 56.3394C66.6002 56.414 66.5536 56.4815 66.4951 56.5378C66.4367 56.5942 66.3675 56.6384 66.2918 56.6677C66.2161 56.6971 66.1352 56.7111 66.054 56.7089Z" fill="white"/>
<path d="M42.134 161.356C42.0107 161.354 41.8909 161.315 41.7896 161.245C41.6884 161.174 41.6105 161.075 41.5656 160.961C41.5207 160.846 41.511 160.72 41.5376 160.6C41.5643 160.479 41.6261 160.37 41.7152 160.285C41.8043 160.199 41.9168 160.143 42.0383 160.121C42.1598 160.1 42.2848 160.115 42.3976 160.165C42.5104 160.215 42.6057 160.298 42.6716 160.402C42.7375 160.506 42.7709 160.628 42.7676 160.751C42.7632 160.915 42.6942 161.071 42.5755 161.184C42.4569 161.297 42.2982 161.359 42.134 161.356Z" fill="white"/>
<path d="M188.194 135.064C188.072 135.061 187.954 135.021 187.854 134.951C187.755 134.881 187.679 134.783 187.635 134.669C187.591 134.556 187.582 134.432 187.608 134.313C187.635 134.194 187.696 134.086 187.784 134.002C187.872 133.918 187.983 133.862 188.103 133.84C188.223 133.819 188.346 133.834 188.458 133.883C188.569 133.931 188.664 134.012 188.73 134.115C188.795 134.217 188.829 134.337 188.827 134.458C188.826 134.54 188.808 134.62 188.775 134.695C188.743 134.769 188.696 134.837 188.637 134.893C188.578 134.949 188.508 134.994 188.432 135.023C188.356 135.052 188.275 135.066 188.194 135.064Z" fill="white"/>
<path d="M124.481 46.0986C124.377 46.0931 124.278 46.0571 124.194 45.9951C124.111 45.9332 124.048 45.848 124.012 45.7503C123.977 45.6525 123.972 45.5466 123.996 45.4457C124.021 45.3449 124.075 45.2536 124.152 45.1832C124.228 45.1129 124.324 45.0667 124.426 45.0504C124.529 45.0341 124.634 45.0485 124.729 45.0916C124.823 45.1348 124.903 45.2049 124.958 45.2931C125.012 45.3813 125.04 45.4837 125.037 45.5875C125.036 45.6581 125.02 45.7276 124.991 45.7919C124.962 45.8562 124.92 45.914 124.868 45.9618C124.816 46.0096 124.755 46.0463 124.689 46.0698C124.622 46.0933 124.552 46.1031 124.481 46.0986Z" fill="white"/>
<path d="M73.7957 33.3996C73.6933 33.3985 73.5935 33.367 73.509 33.309C73.4245 33.2511 73.3592 33.1694 73.3213 33.0742C73.2833 32.9791 73.2746 32.8748 73.2961 32.7747C73.3175 32.6746 73.3683 32.5831 73.4419 32.5118C73.5155 32.4406 73.6087 32.3929 73.7095 32.3746C73.8103 32.3564 73.9143 32.3686 74.0082 32.4095C74.1021 32.4505 74.1817 32.5184 74.2369 32.6047C74.2921 32.691 74.3203 32.7917 74.3182 32.8941C74.3152 33.0302 74.2587 33.1595 74.1609 33.2542C74.0631 33.3489 73.9319 33.4011 73.7957 33.3996Z" fill="white"/>
<path d="M107.369 174.233C107.269 174.225 107.172 174.189 107.092 174.127C107.013 174.065 106.952 173.981 106.92 173.886C106.887 173.791 106.883 173.688 106.908 173.59C106.933 173.492 106.986 173.404 107.06 173.336C107.135 173.268 107.228 173.223 107.328 173.208C107.428 173.192 107.53 173.206 107.622 173.247C107.714 173.289 107.791 173.357 107.845 173.442C107.899 173.527 107.927 173.627 107.925 173.728C107.924 173.798 107.908 173.867 107.879 173.931C107.85 173.995 107.808 174.053 107.756 174.1C107.704 174.147 107.643 174.184 107.576 174.206C107.51 174.229 107.439 174.238 107.369 174.233Z" fill="white"/>
<path d="M91.8857 220.857C91.7901 220.856 91.6957 220.836 91.6079 220.798C91.5202 220.76 91.4407 220.705 91.3741 220.636C91.3076 220.568 91.2551 220.487 91.2199 220.398C91.1847 220.309 91.1673 220.214 91.1688 220.118C91.1699 219.973 91.2143 219.831 91.2964 219.711C91.3784 219.591 91.4944 219.498 91.6295 219.443C91.7646 219.389 91.9127 219.377 92.0551 219.407C92.1975 219.437 92.3276 219.509 92.429 219.614C92.5303 219.718 92.5983 219.85 92.6242 219.993C92.6501 220.137 92.6329 220.284 92.5747 220.418C92.5164 220.551 92.4198 220.664 92.2971 220.742C92.1744 220.821 92.0312 220.861 91.8857 220.857Z" fill="white"/>
<path d="M144.322 145.874C144.199 145.873 144.078 145.835 143.976 145.766C143.875 145.696 143.796 145.598 143.75 145.484C143.704 145.369 143.693 145.244 143.719 145.123C143.744 145.003 143.805 144.892 143.893 144.806C143.982 144.72 144.094 144.662 144.215 144.64C144.336 144.618 144.461 144.632 144.575 144.681C144.688 144.73 144.784 144.811 144.851 144.915C144.918 145.019 144.952 145.14 144.95 145.263C144.947 145.427 144.879 145.583 144.762 145.698C144.644 145.812 144.486 145.876 144.322 145.874Z" fill="white"/>
<path d="M172.949 169.7C172.848 169.693 172.752 169.656 172.672 169.594C172.592 169.532 172.532 169.448 172.499 169.353C172.466 169.258 172.462 169.155 172.487 169.057C172.512 168.959 172.566 168.871 172.64 168.803C172.715 168.735 172.808 168.69 172.908 168.675C173.007 168.659 173.109 168.673 173.201 168.714C173.293 168.756 173.371 168.824 173.425 168.909C173.479 168.994 173.507 169.094 173.505 169.195C173.504 169.265 173.488 169.334 173.459 169.398C173.43 169.462 173.388 169.52 173.336 169.567C173.284 169.614 173.223 169.651 173.156 169.673C173.09 169.696 173.019 169.705 172.949 169.7Z" fill="white"/>
<path d="M196.763 71.0967C196.669 71.0945 196.576 71.0738 196.49 71.0357C196.404 70.9977 196.326 70.9431 196.261 70.875C196.13 70.7375 196.059 70.5535 196.063 70.3634C196.068 70.1733 196.147 69.9928 196.285 69.8616C196.423 69.7303 196.607 69.659 196.797 69.6635C196.987 69.6679 197.168 69.7476 197.299 69.8851C197.43 70.0226 197.501 70.2067 197.497 70.3967C197.493 70.5868 197.413 70.7673 197.275 70.8986C197.138 71.0298 196.954 71.1011 196.763 71.0967Z" fill="white"/>
<path d="M183.481 6.585C183.339 6.58167 183.201 6.5364 183.085 6.45493C182.969 6.37345 182.88 6.25943 182.829 6.12727C182.778 5.99511 182.767 5.85074 182.798 5.71243C182.829 5.57412 182.9 5.44808 183.003 5.35023C183.105 5.25238 183.234 5.18711 183.374 5.16269C183.514 5.13828 183.658 5.1558 183.787 5.21304C183.917 5.27029 184.027 5.36468 184.103 5.4843C184.179 5.60392 184.218 5.74338 184.214 5.88506C184.213 5.9794 184.193 6.07251 184.155 6.15897C184.117 6.24542 184.063 6.3235 183.994 6.38864C183.926 6.45379 183.845 6.5047 183.757 6.53841C183.669 6.57213 183.575 6.58796 183.481 6.585Z" fill="white"/>
<path d="M152.858 81.9514C152.665 81.9313 152.487 81.8395 152.359 81.6941C152.231 81.5487 152.162 81.3604 152.166 81.1666C152.17 80.9729 152.247 80.7877 152.382 80.648C152.516 80.5084 152.698 80.4243 152.892 80.4126C152.998 80.4062 153.105 80.4219 153.205 80.4588C153.305 80.4956 153.397 80.5529 153.474 80.6269C153.551 80.7009 153.612 80.79 153.652 80.8887C153.693 80.9873 153.713 81.0934 153.711 81.2001C153.708 81.3068 153.684 81.4119 153.639 81.5087C153.594 81.6055 153.529 81.6919 153.449 81.7625C153.369 81.8331 153.275 81.8863 153.174 81.9188C153.072 81.9513 152.964 81.9624 152.858 81.9514Z" fill="white"/>
<path d="M217.41 129.703C217.309 129.696 217.213 129.659 217.133 129.597C217.053 129.535 216.993 129.452 216.96 129.356C216.927 129.261 216.923 129.158 216.948 129.06C216.973 128.962 217.026 128.874 217.101 128.806C217.176 128.738 217.269 128.693 217.368 128.678C217.468 128.662 217.57 128.676 217.662 128.718C217.754 128.759 217.832 128.827 217.886 128.912C217.94 128.998 217.968 129.097 217.966 129.198C217.964 129.268 217.949 129.337 217.92 129.401C217.891 129.465 217.849 129.523 217.797 129.57C217.745 129.618 217.684 129.654 217.617 129.677C217.551 129.699 217.48 129.709 217.41 129.703Z" fill="white"/>
<path d="M246.271 142.202C246.127 142.2 245.987 142.155 245.868 142.073C245.75 141.992 245.658 141.877 245.605 141.743C245.552 141.609 245.54 141.462 245.57 141.322C245.6 141.181 245.672 141.052 245.775 140.952C245.878 140.852 246.009 140.785 246.151 140.759C246.292 140.733 246.438 140.75 246.571 140.807C246.703 140.864 246.815 140.959 246.893 141.08C246.971 141.2 247.012 141.342 247.01 141.486C247.008 141.581 246.988 141.676 246.95 141.763C246.912 141.851 246.857 141.93 246.789 141.997C246.72 142.064 246.639 142.116 246.55 142.151C246.461 142.186 246.366 142.204 246.271 142.202Z" fill="white"/>
<path d="M290.737 101.833C290.687 101.833 290.636 101.823 290.59 101.803C290.543 101.784 290.501 101.755 290.466 101.719C290.431 101.682 290.403 101.639 290.385 101.592C290.366 101.545 290.358 101.495 290.359 101.444C290.359 101.343 290.4 101.245 290.471 101.173C290.543 101.101 290.641 101.061 290.743 101.061C290.844 101.061 290.942 101.101 291.014 101.173C291.086 101.245 291.126 101.343 291.126 101.444C291.128 101.496 291.119 101.547 291.1 101.595C291.081 101.643 291.052 101.686 291.016 101.723C290.979 101.759 290.936 101.788 290.888 101.807C290.84 101.826 290.789 101.835 290.737 101.833Z" fill="white"/>
<path d="M208.39 216.996C208.314 216.994 208.241 216.97 208.179 216.926C208.118 216.882 208.07 216.821 208.043 216.751C208.016 216.68 208.01 216.603 208.027 216.53C208.043 216.456 208.081 216.389 208.136 216.336C208.19 216.284 208.259 216.249 208.334 216.236C208.408 216.223 208.485 216.232 208.554 216.262C208.623 216.292 208.682 216.342 208.723 216.405C208.764 216.469 208.786 216.543 208.785 216.619C208.784 216.669 208.773 216.72 208.753 216.766C208.732 216.813 208.703 216.855 208.666 216.89C208.63 216.925 208.586 216.953 208.539 216.971C208.491 216.989 208.441 216.998 208.39 216.996Z" fill="white"/>
<path d="M238.184 182.549C238.083 182.549 237.985 182.509 237.913 182.437C237.841 182.365 237.801 182.267 237.801 182.166C237.801 182.064 237.841 181.967 237.913 181.895C237.985 181.823 238.083 181.782 238.184 181.782C238.286 181.782 238.384 181.823 238.455 181.895C238.527 181.967 238.568 182.064 238.568 182.166C238.568 182.267 238.527 182.365 238.455 182.437C238.384 182.509 238.286 182.549 238.184 182.549Z" fill="white"/>
<path d="M276.649 78.4961C276.512 78.4938 276.379 78.4511 276.267 78.3733C276.155 78.2955 276.068 78.1862 276.018 78.0592C275.969 77.9322 275.957 77.7932 275.987 77.6599C276.016 77.5266 276.084 77.405 276.183 77.3105C276.281 77.216 276.405 77.1528 276.54 77.129C276.674 77.1052 276.813 77.1219 276.938 77.1769C277.063 77.2319 277.168 77.3228 277.242 77.4379C277.315 77.5531 277.352 77.6875 277.349 77.8239C277.344 78.0056 277.268 78.1782 277.137 78.3041C277.006 78.4301 276.83 78.499 276.649 78.4961Z" fill="white"/>
<path d="M227.014 13.1956C226.932 13.1949 226.852 13.178 226.777 13.1459C226.703 13.1139 226.635 13.0672 226.579 13.0088C226.522 12.9503 226.478 12.8813 226.449 12.8056C226.42 12.7298 226.406 12.649 226.408 12.5679C226.41 12.4459 226.448 12.3274 226.518 12.2273C226.588 12.1271 226.685 12.0498 226.799 12.0052C226.912 11.9606 227.037 11.9506 227.156 11.9766C227.275 12.0025 227.384 12.0632 227.469 12.151C227.553 12.2388 227.61 12.3497 227.632 12.4697C227.653 12.5897 227.639 12.7134 227.59 12.8252C227.541 12.937 227.461 13.0319 227.358 13.0978C227.255 13.1638 227.136 13.1978 227.014 13.1956Z" fill="white"/>
<path d="M201.465 199.576C201.3 199.571 201.144 199.502 201.03 199.384C200.915 199.265 200.852 199.107 200.854 198.942C200.856 198.819 200.895 198.7 200.965 198.599C201.035 198.497 201.134 198.42 201.248 198.374C201.363 198.329 201.488 198.319 201.608 198.346C201.729 198.372 201.839 198.433 201.924 198.521C202.01 198.61 202.067 198.722 202.089 198.843C202.111 198.964 202.096 199.089 202.047 199.202C201.998 199.315 201.916 199.41 201.813 199.477C201.709 199.543 201.588 199.578 201.465 199.576Z" fill="white"/>
<path d="M261.171 124.748C261.067 124.743 260.967 124.707 260.884 124.645C260.801 124.583 260.738 124.498 260.702 124.401C260.667 124.304 260.661 124.198 260.685 124.097C260.71 123.997 260.763 123.905 260.839 123.835C260.915 123.764 261.01 123.717 261.112 123.7C261.214 123.683 261.319 123.697 261.414 123.739C261.509 123.782 261.589 123.851 261.644 123.938C261.7 124.026 261.728 124.128 261.726 124.231C261.725 124.302 261.709 124.372 261.68 124.437C261.651 124.501 261.61 124.559 261.558 124.607C261.506 124.656 261.445 124.693 261.379 124.717C261.312 124.741 261.241 124.752 261.171 124.748Z" fill="white"/>
<path d="M232.332 112.482C232.23 112.481 232.13 112.45 232.045 112.392C231.961 112.334 231.896 112.252 231.858 112.157C231.82 112.062 231.811 111.958 231.832 111.857C231.854 111.757 231.905 111.666 231.978 111.595C232.052 111.523 232.145 111.476 232.246 111.457C232.347 111.439 232.451 111.451 232.544 111.492C232.638 111.533 232.718 111.601 232.773 111.687C232.828 111.774 232.857 111.874 232.854 111.977C232.854 112.044 232.84 112.111 232.813 112.173C232.786 112.235 232.747 112.292 232.699 112.339C232.65 112.386 232.593 112.423 232.53 112.447C232.467 112.472 232.4 112.484 232.332 112.482Z" fill="white"/>
<path d="M252.151 212.158C252.048 212.157 251.948 212.125 251.863 212.067C251.779 212.009 251.713 211.927 251.676 211.831C251.638 211.736 251.63 211.631 251.652 211.531C251.673 211.431 251.725 211.339 251.799 211.268C251.873 211.197 251.967 211.15 252.068 211.132C252.169 211.115 252.273 211.128 252.367 211.169C252.461 211.211 252.54 211.28 252.594 211.367C252.649 211.454 252.676 211.555 252.673 211.658C252.672 211.725 252.658 211.792 252.631 211.854C252.605 211.915 252.566 211.971 252.517 212.018C252.468 212.064 252.411 212.101 252.348 212.125C252.285 212.149 252.218 212.16 252.151 212.158Z" fill="white"/>
<path d="M281.595 195.331C281.471 195.33 281.351 195.292 281.249 195.223C281.147 195.153 281.068 195.054 281.022 194.94C280.977 194.825 280.966 194.699 280.992 194.578C281.018 194.458 281.079 194.347 281.168 194.261C281.257 194.176 281.37 194.118 281.491 194.097C281.613 194.075 281.738 194.09 281.852 194.14C281.965 194.19 282.06 194.272 282.126 194.376C282.193 194.481 282.226 194.602 282.223 194.726C282.218 194.889 282.15 195.044 282.033 195.157C281.915 195.27 281.758 195.333 281.595 195.331Z" fill="white"/>
<path d="M325.005 207.753C324.905 207.745 324.808 207.708 324.728 207.646C324.648 207.585 324.588 207.501 324.555 207.406C324.523 207.31 324.518 207.207 324.544 207.109C324.569 207.012 324.622 206.923 324.696 206.855C324.771 206.787 324.864 206.743 324.964 206.727C325.064 206.711 325.166 206.725 325.258 206.767C325.35 206.809 325.427 206.876 325.481 206.962C325.535 207.047 325.563 207.146 325.561 207.247C325.56 207.317 325.544 207.387 325.515 207.451C325.486 207.515 325.444 207.572 325.392 207.62C325.34 207.667 325.279 207.703 325.212 207.726C325.146 207.749 325.075 207.758 325.005 207.753Z" fill="white"/>
<path d="M304.225 155.051C304.072 155.049 303.924 155.001 303.798 154.914C303.672 154.828 303.574 154.705 303.518 154.563C303.462 154.421 303.449 154.265 303.482 154.116C303.514 153.966 303.59 153.83 303.7 153.723C303.811 153.617 303.95 153.546 304.1 153.519C304.251 153.492 304.406 153.51 304.546 153.572C304.687 153.633 304.805 153.735 304.888 153.864C304.97 153.992 305.012 154.143 305.009 154.296C305.008 154.397 304.986 154.497 304.946 154.59C304.906 154.682 304.847 154.766 304.775 154.837C304.702 154.907 304.616 154.962 304.521 154.999C304.427 155.036 304.327 155.053 304.225 155.051Z" fill="white"/>
<path d="M105.796 70.1856C107.442 70.1856 108.775 68.8525 108.775 67.2081C108.775 65.5636 107.442 64.2305 105.796 64.2305C104.151 64.2305 102.818 65.5636 102.818 67.2081C102.818 68.8525 104.151 70.1856 105.796 70.1856Z" fill="white"/>
<path d="M156.821 -8.14166L160.517 41.0434L180.502 24.4447L156.821 -8.14166Z" stroke="white" stroke-width="0.193599" stroke-miterlimit="10"/>
<path d="M133.362 17.7452L160.517 41.0434L156.821 -8.14166L133.362 17.7452Z" stroke="white" stroke-width="0.193599" stroke-miterlimit="10"/>
<path d="M97.3878 -29.5511L133.362 17.7452L156.821 -8.14164L97.3878 -29.5511Z" stroke="white" stroke-width="0.193599" stroke-miterlimit="10"/>
<path d="M105.98 67.4636L133.362 17.7452L69.0329 49.965L105.98 67.4636Z" stroke="white" stroke-width="0.193599" stroke-miterlimit="10"/>
<path d="M61.9302 0.307739L133.362 17.7453L11.6394 26.2335L61.9302 0.307739Z" stroke="white" stroke-width="0.193599" stroke-miterlimit="10"/>
<path d="M216.687 16.762L156.821 -8.14167L221.067 -78.1529L216.687 16.762Z" stroke="white" stroke-width="0.193599" stroke-miterlimit="10"/>
<path d="M108.714 -89.2465L155.737 -82.5192L104.968 15.5509L108.714 -89.2465Z" stroke="white" stroke-width="0.193599" stroke-miterlimit="10"/>
<path d="M63.642 -62.4097L135.808 -58.8377L104.968 15.5509L63.642 -62.4097Z" stroke="white" stroke-width="0.193599" stroke-miterlimit="10"/>
<path d="M163.301 74.9575L160.517 41.0435L105.98 67.4636L163.301 74.9575Z" stroke="white" stroke-width="0.193599" stroke-miterlimit="10"/>
<path d="M220.544 48.2151L160.517 41.0434L216.687 16.762L220.544 48.2151Z" stroke="white" stroke-width="0.193599" stroke-miterlimit="10"/>
<path d="M-10.7077 61.0252L69.0329 49.9649L21.1541 -19.9574L-10.7077 61.0252Z" stroke="white" stroke-width="0.193599" stroke-miterlimit="10"/>
<path d="M250.889 -19.663L163.301 74.9575L123.336 154.085L82.3545 97.8279" stroke="white" stroke-width="0.193599" stroke-miterlimit="10"/>
<path d="M22.0322 173.944L6.01514 216.863L51.2096 209.269L22.0322 173.944Z" stroke="white" stroke-width="0.774396" stroke-miterlimit="10"/>
<path d="M22.0322 173.944L82.8047 158.04L51.2096 209.269L22.0322 173.944Z" stroke="white" stroke-width="0.774396" stroke-miterlimit="10"/>
<path d="M34.9703 112.688L82.8047 158.04L22.0322 173.944L34.9703 112.688Z" stroke="white" stroke-width="0.774396" stroke-miterlimit="10"/>
<path d="M3.95888 122.77L34.9703 112.688L22.0322 173.944L3.95888 122.77Z" stroke="white" stroke-width="0.774396" stroke-miterlimit="10"/>
<path d="M16.1634 78.6238L3.95888 122.77L34.9703 112.688L16.1634 78.6238Z" stroke="white" stroke-width="0.774396" stroke-miterlimit="10"/>
<path d="M69.0328 49.965L16.1633 78.6238L34.9703 112.688L69.0328 49.965Z" stroke="white" stroke-width="0.774396" stroke-miterlimit="10"/>
<path d="M105.98 67.4635L69.0329 49.9649L104.968 15.5509L105.98 67.4635Z" stroke="white" stroke-width="0.774396" stroke-miterlimit="10"/>
<path d="M82.3545 97.8279L69.0329 49.965L34.9703 112.688L82.3545 97.8279Z" stroke="white" stroke-width="0.774396" stroke-miterlimit="10"/>
<path d="M11.6394 26.2335L69.0329 49.9649L16.1633 78.6238L11.6394 26.2335Z" stroke="white" stroke-width="0.774396" stroke-miterlimit="10"/>
<path d="M82.3545 97.8279L105.98 67.4636L125.148 110.26L82.3545 97.8279Z" stroke="white" stroke-width="0.774396" stroke-miterlimit="10"/>
<path d="M85.2611 124.093L82.3545 97.8279L125.148 110.26L85.2611 124.093Z" stroke="white" stroke-width="0.774396" stroke-miterlimit="10"/>
<path d="M82.8046 158.04L85.2611 124.093L34.9703 112.688L82.8046 158.04Z" stroke="white" stroke-width="0.774396" stroke-miterlimit="10"/>
<path d="M123.336 154.085L82.8047 158.04L85.2611 124.093L123.336 154.085Z" stroke="white" stroke-width="0.774396" stroke-miterlimit="10"/>
<path d="M125.148 110.26L163.301 74.9574L105.98 67.4636L125.148 110.26Z" stroke="white" stroke-width="0.774396" stroke-miterlimit="10"/>
<path d="M104.968 15.5509L142.393 37.6381L105.98 67.4635L104.968 15.5509Z" stroke="white" stroke-width="0.774396" stroke-miterlimit="10"/>
<path d="M61.9303 0.307739L69.0329 49.965L104.968 15.551L61.9303 0.307739Z" stroke="white" stroke-width="0.774396" stroke-miterlimit="10"/>
<path d="M11.6394 26.2335L61.9303 0.3077L21.1541 -19.9574L11.6394 26.2335Z" stroke="white" stroke-width="0.774396" stroke-miterlimit="10"/>
<path d="M-20.5391 21.6505L11.6394 26.2335L-10.7077 61.0252L-20.5391 21.6505Z" stroke="white" stroke-width="0.774396" stroke-miterlimit="10"/>
<path d="M16.1634 78.6238L-42.0915 84.49L3.95887 122.77L16.1634 78.6238Z" stroke="white" stroke-width="0.774396" stroke-miterlimit="10"/>
<path d="M-10.7077 61.0252L16.1634 78.6238L-42.0915 84.49L-10.7077 61.0252Z" stroke="white" stroke-width="0.774396" stroke-miterlimit="10"/>
<path d="M97.3878 -29.5511L61.9303 0.307703L104.968 15.551L97.3878 -29.5511Z" stroke="white" stroke-width="0.774396" stroke-miterlimit="10"/>
<path d="M156.821 -8.14166L104.968 15.5509L142.393 37.6381L156.821 -8.14166Z" stroke="white" stroke-width="0.774396" stroke-miterlimit="10"/>
<path d="M163.301 74.9575L142.393 37.6381L180.502 24.4447L163.301 74.9575Z" stroke="white" stroke-width="0.774396" stroke-miterlimit="10"/>
<path d="M165.58 133.075L125.148 110.26L163.301 74.9575L165.58 133.075Z" stroke="white" stroke-width="0.774396" stroke-miterlimit="10"/>
<path d="M123.336 154.085L125.148 110.26L165.58 133.075L123.336 154.085Z" stroke="white" stroke-width="0.774396" stroke-miterlimit="10"/>
<path d="M111.854 188.476L82.8047 158.04L123.336 154.085L111.854 188.476Z" stroke="white" stroke-width="0.774396" stroke-miterlimit="10"/>
<path d="M206.139 102.611L165.58 133.075L163.301 74.9575L206.139 102.611Z" stroke="white" stroke-width="0.774396" stroke-miterlimit="10"/>
<path d="M220.544 48.2151L163.301 74.9575L180.502 24.4447L220.544 48.2151Z" stroke="white" stroke-width="0.774396" stroke-miterlimit="10"/>
<path d="M199.52 -11.0359L180.502 24.4447L156.821 -8.14167L199.52 -11.0359Z" stroke="white" stroke-width="0.774396" stroke-miterlimit="10"/>
<path d="M63.642 -62.4097L97.3878 -29.5511L61.9303 0.307684L63.642 -62.4097Z" stroke="white" stroke-width="0.774396" stroke-miterlimit="10"/>
<path d="M25.9281 -60.7098L63.642 -62.4097L61.9303 0.307684L25.9281 -60.7098Z" stroke="white" stroke-width="0.774396" stroke-miterlimit="10"/>
<path d="M-2.53248 3.49634L11.6394 26.2335L-20.5391 21.6505L-2.53248 3.49634Z" stroke="white" stroke-width="0.774396" stroke-miterlimit="10"/>
<path d="M21.1541 -19.9574L-2.53245 3.49636L-4.01633 -41.4113L21.1541 -19.9574Z" stroke="white" stroke-width="0.774396" stroke-miterlimit="10"/>
<path d="M216.687 16.762L199.52 -11.0359L180.502 24.4447L216.687 16.762Z" stroke="white" stroke-width="0.774396" stroke-miterlimit="10"/>
<path d="M250.556 33.544L216.687 16.762L250.889 -19.663L250.556 33.544Z" stroke="white" stroke-width="0.774396" stroke-miterlimit="10"/>
<path d="M220.544 48.2151L216.687 16.762L180.502 24.4447L220.544 48.2151Z" stroke="white" stroke-width="0.774396" stroke-miterlimit="10"/>
<path d="M294.7 160.256L298.04 95.1892L262.11 106.516L234.928 72.2021L206.139 102.611L104.968 15.5509L125.148 110.26L82.3545 97.8278L104.968 15.5509L34.9703 112.688L-42.0915 84.49L69.0329 49.9649" stroke="white" stroke-width="0.193599" stroke-miterlimit="10"/>
<path d="M190.139 156.062L165.58 133.075L151.469 176.827L190.139 156.062Z" stroke="white" stroke-width="0.774396" stroke-miterlimit="10"/>
<path d="M200.893 192.426L190.139 156.062L228.32 149.652" stroke="white" stroke-width="0.774396" stroke-miterlimit="10"/>
<path d="M250.889 -19.663L220.544 48.2151L250.555 33.544L293.933 19.834L297.545 58.2921L261.721 44.7765" stroke="white" stroke-width="0.774396" stroke-miterlimit="10"/>
<path d="M111.854 188.476L81.2096 227.74L111.771 260.193L161.584 215.974" stroke="white" stroke-width="0.774396" stroke-miterlimit="10"/>
<path d="M107.286 15.9787C107.201 16.4313 106.984 16.8485 106.661 17.1775C106.339 17.5066 105.926 17.7327 105.476 17.8273C105.025 17.9219 104.556 17.8807 104.128 17.7089C103.701 17.5371 103.334 17.2424 103.074 16.8621C102.815 16.4819 102.673 16.0332 102.669 15.5727C102.664 15.1122 102.796 14.6608 103.048 14.2754C103.301 13.89 103.661 13.588 104.085 13.4077C104.509 13.2273 104.977 13.1767 105.43 13.2622C106.036 13.3768 106.572 13.7272 106.92 14.2365C107.268 14.7459 107.4 15.3725 107.286 15.9787Z" fill="white"/>
<path d="M182.58 24.8336C182.503 25.246 182.305 25.626 182.01 25.9254C181.716 26.2249 181.34 26.4302 180.929 26.5153C180.518 26.6004 180.091 26.5615 179.702 26.4034C179.313 26.2454 178.98 25.9754 178.745 25.6277C178.51 25.2801 178.384 24.8704 178.382 24.4508C178.38 24.0312 178.504 23.6206 178.736 23.2712C178.968 22.9218 179.299 22.6492 179.687 22.4883C180.075 22.3273 180.501 22.2851 180.913 22.3671C181.459 22.4773 181.94 22.7977 182.252 23.2591C182.564 23.7205 182.682 24.286 182.58 24.8336Z" fill="white"/>
<path d="M71.9006 50.5038C71.794 51.0707 71.5216 51.5932 71.1178 52.0053C70.7141 52.4174 70.1972 52.7006 69.6324 52.8191C69.0676 52.9375 68.4804 52.8859 67.945 52.6708C67.4096 52.4557 66.95 52.0867 66.6244 51.6105C66.2987 51.1343 66.1217 50.5723 66.1156 49.9956C66.1095 49.4188 66.2746 48.8532 66.5902 48.3702C66.9057 47.8873 67.3573 47.5087 67.8881 47.2823C68.4189 47.0559 69.0049 46.992 69.572 47.0985C70.3319 47.2427 71.0036 47.6821 71.4401 48.3203C71.8765 48.9586 72.0422 49.7437 71.9006 50.5038Z" fill="white"/>
<path d="M128.766 110.938C128.9 110.223 128.818 109.485 128.532 108.816C128.246 108.148 127.768 107.579 127.159 107.182C126.549 106.785 125.836 106.577 125.108 106.585C124.381 106.593 123.672 106.817 123.072 107.228C122.471 107.638 122.006 108.218 121.735 108.892C121.464 109.567 121.399 110.307 121.549 111.019C121.699 111.731 122.056 112.382 122.576 112.891C123.096 113.399 123.755 113.742 124.47 113.877C124.945 113.966 125.433 113.961 125.906 113.861C126.38 113.762 126.828 113.57 127.227 113.297C127.626 113.024 127.968 112.676 128.232 112.271C128.496 111.866 128.677 111.413 128.766 110.938Z" fill="white"/>
<path d="M1.08553 4.17406C1.21892 3.45949 1.13746 2.72143 0.851434 2.05311C0.565406 1.38479 0.0876422 0.816185 -0.521509 0.419123C-1.13066 0.0220617 -1.84387 -0.185641 -2.57106 -0.177762C-3.29825 -0.169884 -4.00679 0.0532216 -4.60719 0.463387C-5.20758 0.873553 -5.67291 1.45238 -5.94438 2.12674C-6.21584 2.8011 -6.28128 3.54074 -6.13243 4.25226C-5.98357 4.96377 -5.62709 5.61524 -5.10802 6.12436C-4.58895 6.63347 -3.93058 6.97741 -3.21606 7.11273C-2.25596 7.29155 -1.26408 7.08266 -0.45778 6.53183C0.348522 5.981 0.903495 5.13315 1.08553 4.17406Z" fill="white"/>
<path d="M207.801 102.922C207.855 102.599 207.814 102.268 207.681 101.969C207.548 101.67 207.33 101.416 207.054 101.24C206.779 101.064 206.457 100.973 206.13 100.978C205.803 100.984 205.484 101.085 205.214 101.27C204.944 101.455 204.735 101.715 204.612 102.018C204.489 102.322 204.458 102.654 204.523 102.975C204.587 103.296 204.745 103.59 204.976 103.822C205.207 104.053 205.502 104.212 205.822 104.277C206.041 104.318 206.266 104.316 206.484 104.27C206.702 104.224 206.909 104.135 207.093 104.01C207.276 103.884 207.434 103.723 207.555 103.536C207.677 103.35 207.76 103.141 207.801 102.922Z" fill="white"/>
<path d="M222.189 48.5262C222.25 48.2024 222.212 47.8681 222.083 47.5655C221.953 47.2628 221.736 47.0054 221.46 46.8257C221.184 46.646 220.861 46.5521 220.531 46.5558C220.202 46.5595 219.881 46.6606 219.609 46.8465C219.337 47.0324 219.126 47.2946 219.003 47.6001C218.88 47.9056 218.851 48.2406 218.918 48.563C218.985 48.8853 219.147 49.1805 219.382 49.4112C219.617 49.6419 219.915 49.7979 220.239 49.8594C220.454 49.9004 220.676 49.8984 220.891 49.8535C221.106 49.8087 221.31 49.7218 221.491 49.5979C221.672 49.474 221.827 49.3156 221.947 49.1317C222.067 48.9477 222.149 48.742 222.189 48.5262Z" fill="white"/>
<path d="M252.201 33.8773C252.261 33.5536 252.223 33.2192 252.094 32.9166C251.964 32.614 251.747 32.3565 251.471 32.1768C251.195 31.9971 250.872 31.9032 250.543 31.9069C250.213 31.9106 249.892 32.0118 249.62 32.1976C249.348 32.3835 249.138 32.6457 249.015 32.9512C248.892 33.2567 248.862 33.5918 248.929 33.9141C248.997 34.2364 249.158 34.5316 249.393 34.7623C249.628 34.9931 249.926 35.149 250.25 35.2105C250.466 35.2515 250.687 35.2495 250.902 35.2047C251.117 35.1598 251.321 35.0729 251.502 34.949C251.684 34.8252 251.839 34.6667 251.958 34.4828C252.078 34.2989 252.161 34.0931 252.201 33.8773Z" fill="white"/>
<path d="M263.455 45.3042C263.515 44.9807 263.477 44.6467 263.347 44.3443C263.218 44.0419 263.001 43.7847 262.726 43.6051C262.45 43.4254 262.127 43.3314 261.798 43.3348C261.469 43.3382 261.148 43.439 260.876 43.6243C260.604 43.8097 260.393 44.0713 260.27 44.3763C260.146 44.6814 260.116 45.016 260.182 45.3383C260.249 45.6605 260.409 45.9558 260.644 46.187C260.878 46.4182 261.175 46.5749 261.498 46.6374C261.715 46.6792 261.937 46.6778 262.152 46.6333C262.368 46.5889 262.573 46.5021 262.754 46.3782C262.936 46.2542 263.092 46.0955 263.212 45.9112C263.332 45.7269 263.415 45.5206 263.455 45.3042Z" fill="white"/>
<path d="M113.783 188.865C113.843 188.542 113.806 188.207 113.676 187.905C113.546 187.602 113.329 187.345 113.053 187.165C112.777 186.985 112.454 186.891 112.125 186.895C111.795 186.899 111.474 187 111.202 187.186C110.93 187.371 110.72 187.634 110.597 187.939C110.474 188.245 110.444 188.58 110.511 188.902C110.579 189.224 110.74 189.52 110.975 189.75C111.21 189.981 111.508 190.137 111.832 190.199C112.048 190.24 112.269 190.238 112.484 190.193C112.699 190.148 112.903 190.061 113.084 189.937C113.266 189.813 113.421 189.655 113.541 189.471C113.66 189.287 113.743 189.081 113.783 188.865Z" fill="white"/>
<path d="M218.377 16.7953C218.437 16.4715 218.4 16.1372 218.27 15.8346C218.14 15.5319 217.924 15.2745 217.648 15.0948C217.371 14.9151 217.048 14.8212 216.719 14.8249C216.389 14.8286 216.069 14.9297 215.797 15.1156C215.525 15.3015 215.314 15.5637 215.191 15.8692C215.068 16.1747 215.038 16.5097 215.106 16.8321C215.173 17.1544 215.334 17.4496 215.569 17.6803C215.804 17.911 216.103 18.067 216.426 18.1285C216.642 18.1695 216.864 18.1675 217.079 18.1226C217.294 18.0777 217.497 17.9909 217.679 17.867C217.86 17.7431 218.015 17.5847 218.135 17.4008C218.255 17.2168 218.337 17.0111 218.377 16.7953Z" fill="white"/>
<path d="M299.279 58.1199C299.339 57.7963 299.302 57.4623 299.172 57.16C299.042 56.8576 298.826 56.6004 298.55 56.4207C298.274 56.2411 297.951 56.1471 297.622 56.1505C297.293 56.1539 296.972 56.2546 296.7 56.44C296.428 56.6253 296.217 56.887 296.094 57.192C295.97 57.497 295.94 57.8317 296.007 58.1539C296.073 58.4762 296.234 58.7715 296.468 59.0027C296.702 59.2339 297 59.3906 297.323 59.4531C297.539 59.4949 297.761 59.4935 297.977 59.449C298.192 59.4045 298.397 59.3178 298.579 59.1939C298.761 59.0699 298.916 58.9112 299.036 58.7269C299.157 58.5425 299.239 58.3362 299.279 58.1199Z" fill="white"/>
<path d="M106.902 67.6358C106.936 67.4539 106.915 67.2662 106.842 67.0963C106.769 66.9263 106.648 66.7816 106.493 66.6803C106.338 66.5791 106.157 66.5257 105.972 66.5271C105.787 66.5284 105.607 66.5843 105.453 66.6877C105.3 66.7912 105.181 66.9376 105.11 67.1086C105.04 67.2796 105.021 67.4675 105.058 67.6489C105.094 67.8302 105.182 67.9969 105.313 68.128C105.443 68.2591 105.61 68.3487 105.791 68.3857C105.913 68.4115 106.04 68.4124 106.162 68.3884C106.285 68.3644 106.402 68.3159 106.506 68.246C106.609 68.176 106.698 68.086 106.766 67.9811C106.834 67.8763 106.881 67.7589 106.902 67.6358Z" fill="white"/>
<path d="M164.935 75.263C164.875 75.5876 164.72 75.8871 164.49 76.1237C164.26 76.3602 163.965 76.5231 163.642 76.5916C163.319 76.6602 162.983 76.6314 162.676 76.5088C162.369 76.3862 162.106 76.1754 161.92 75.9031C161.733 75.6308 161.632 75.3092 161.628 74.9792C161.625 74.6492 161.719 74.3256 161.9 74.0494C162.081 73.7731 162.339 73.5568 162.643 73.4277C162.947 73.2986 163.282 73.2626 163.607 73.3243C164.039 73.4065 164.422 73.6566 164.671 74.0198C164.92 74.3831 165.015 74.83 164.935 75.263Z" fill="white"/>
<path d="M191.762 156.368C191.702 156.693 191.546 156.992 191.316 157.229C191.085 157.465 190.79 157.628 190.466 157.696C190.143 157.764 189.807 157.735 189.5 157.612C189.194 157.488 188.931 157.277 188.745 157.004C188.558 156.731 188.458 156.409 188.455 156.079C188.452 155.749 188.547 155.425 188.729 155.149C188.911 154.874 189.17 154.658 189.474 154.53C189.779 154.401 190.115 154.366 190.439 154.429C190.871 154.513 191.252 154.763 191.5 155.126C191.747 155.489 191.841 155.936 191.762 156.368Z" fill="white"/>
<path d="M144.266 37.9881C144.197 38.3587 144.02 38.7004 143.756 38.9701C143.493 39.2398 143.155 39.4253 142.786 39.5032C142.417 39.581 142.033 39.5478 141.683 39.4076C141.333 39.2674 141.033 39.0266 140.82 38.7157C140.607 38.4047 140.49 38.0375 140.486 37.6606C140.482 37.2837 140.589 36.914 140.795 36.5983C141.001 36.2825 141.296 36.0349 141.643 35.8868C141.99 35.7386 142.373 35.6966 142.743 35.7661C143.24 35.8591 143.679 36.1454 143.965 36.5621C144.251 36.9787 144.359 37.4916 144.266 37.9881Z" fill="white"/>
<path d="M162.223 41.2989C162.174 41.5571 162.05 41.7951 161.866 41.9827C161.682 42.1703 161.446 42.2991 161.189 42.3528C160.932 42.4065 160.664 42.3827 160.421 42.2843C160.177 42.186 159.968 42.0176 159.82 41.8005C159.672 41.5833 159.592 41.3271 159.589 41.0644C159.587 40.8017 159.663 40.5442 159.807 40.3246C159.951 40.1049 160.158 39.933 160.4 39.8305C160.642 39.7281 160.909 39.6997 161.167 39.7491C161.512 39.8151 161.818 40.0153 162.015 40.3058C162.213 40.5964 162.288 40.9535 162.223 41.2989Z" fill="white"/>
<path d="M236.639 72.4577C236.591 72.7157 236.467 72.9536 236.283 73.1413C236.1 73.329 235.864 73.458 235.607 73.5121C235.35 73.5661 235.083 73.5428 234.839 73.4451C234.595 73.3473 234.386 73.1795 234.238 72.9629C234.089 72.7462 234.009 72.4905 234.006 72.2279C234.003 71.9654 234.078 71.7079 234.221 71.4879C234.364 71.268 234.57 71.0955 234.811 70.9922C235.053 70.8889 235.32 70.8596 235.578 70.9078C235.924 70.9739 236.229 71.1738 236.428 71.4642C236.627 71.7545 236.703 72.1116 236.639 72.4577Z" fill="white"/>
<path d="M263.416 106.761C263.367 107.019 263.243 107.256 263.06 107.444C262.876 107.632 262.641 107.761 262.384 107.815C262.127 107.869 261.86 107.846 261.616 107.748C261.372 107.65 261.163 107.482 261.014 107.266C260.866 107.049 260.785 106.793 260.782 106.531C260.779 106.268 260.854 106.011 260.998 105.791C261.141 105.571 261.346 105.398 261.588 105.295C261.829 105.192 262.096 105.162 262.354 105.211C262.526 105.243 262.689 105.308 262.836 105.403C262.982 105.499 263.108 105.622 263.206 105.766C263.305 105.91 263.374 106.072 263.41 106.242C263.446 106.413 263.448 106.589 263.416 106.761Z" fill="white"/>
<path d="M84.3719 98.2056C84.2967 98.6041 84.1049 98.9712 83.8209 99.2607C83.5369 99.5502 83.1733 99.749 82.7763 99.832C82.3792 99.9149 81.9665 99.8783 81.5902 99.7268C81.214 99.5752 80.8911 99.3155 80.6626 98.9806C80.434 98.6456 80.3099 98.2505 80.306 97.845C80.3022 97.4396 80.4187 97.0421 80.6408 96.7028C80.863 96.3636 81.1808 96.0978 81.5541 95.9391C81.9274 95.7805 82.3394 95.736 82.7379 95.8114C83.2722 95.9124 83.7445 96.2214 84.0509 96.6704C84.3573 97.1194 84.4727 97.6716 84.3719 98.2056Z" fill="white"/>
<path d="M37.6046 113.182C37.5066 113.703 37.2564 114.182 36.8858 114.56C36.5151 114.939 36.0406 115.198 35.5222 115.307C35.0038 115.416 34.4648 115.368 33.9733 115.171C33.4819 114.974 33.06 114.635 32.761 114.198C32.462 113.761 32.2993 113.245 32.2936 112.716C32.2878 112.186 32.4392 111.667 32.7285 111.224C33.0179 110.78 33.4324 110.433 33.9194 110.224C34.4065 110.016 34.9443 109.957 35.465 110.055C36.1631 110.187 36.7804 110.59 37.1815 111.176C37.5825 111.763 37.7347 112.484 37.6046 113.182Z" fill="white"/>
<path d="M18.7976 79.1182C18.6996 79.6385 18.4494 80.1181 18.0788 80.4963C17.7081 80.8745 17.2336 81.1344 16.7152 81.2431C16.1968 81.3518 15.6578 81.3045 15.1663 81.1071C14.6749 80.9096 14.253 80.571 13.954 80.134C13.655 79.697 13.4923 79.1812 13.4865 78.6518C13.4808 78.1223 13.6322 77.6031 13.9216 77.1597C14.2109 76.7162 14.6254 76.3685 15.1124 76.1604C15.5995 75.9524 16.1373 75.8933 16.6579 75.9907C17.004 76.0554 17.3339 76.1877 17.6287 76.38C17.9236 76.5722 18.1776 76.8207 18.3763 77.1112C18.5751 77.4016 18.7146 77.7284 18.7869 78.0728C18.8591 78.4172 18.8628 78.7724 18.7976 79.1182Z" fill="white"/>
<path d="M84.4997 158.357C84.4368 158.687 84.2774 158.991 84.0417 159.23C83.806 159.47 83.5045 159.634 83.1753 159.703C82.8462 159.771 82.5041 159.74 82.1924 159.615C81.8807 159.489 81.6133 159.273 81.4239 158.996C81.2346 158.718 81.1318 158.391 81.1286 158.054C81.1254 157.718 81.222 157.389 81.406 157.108C81.59 156.827 81.8533 156.606 82.1626 156.475C82.4719 156.343 82.8133 156.306 83.1437 156.368C83.3635 156.409 83.573 156.493 83.7601 156.616C83.9473 156.738 84.1085 156.896 84.2345 157.081C84.3604 157.266 84.4487 157.473 84.4942 157.692C84.5397 157.911 84.5416 158.137 84.4997 158.357Z" fill="white"/>
<path d="M125.309 154.457C125.236 154.847 125.049 155.207 124.772 155.49C124.495 155.774 124.139 155.969 123.751 156.051C123.362 156.133 122.958 156.098 122.59 155.95C122.222 155.802 121.905 155.549 121.681 155.221C121.457 154.894 121.335 154.507 121.331 154.11C121.327 153.714 121.44 153.324 121.657 152.992C121.874 152.66 122.185 152.4 122.55 152.244C122.915 152.088 123.319 152.045 123.709 152.118C123.968 152.166 124.215 152.265 124.435 152.409C124.656 152.552 124.846 152.738 124.995 152.955C125.144 153.173 125.248 153.417 125.302 153.675C125.356 153.932 125.358 154.198 125.309 154.457Z" fill="white"/>
<path d="M153.197 177.155C153.124 177.543 152.937 177.901 152.66 178.183C152.383 178.465 152.028 178.659 151.641 178.74C151.254 178.821 150.852 178.786 150.485 178.638C150.118 178.491 149.804 178.238 149.58 177.912C149.357 177.586 149.235 177.201 149.231 176.805C149.226 176.41 149.339 176.023 149.555 175.691C149.771 175.36 150.08 175.1 150.443 174.945C150.807 174.789 151.208 174.744 151.597 174.816C151.856 174.864 152.103 174.963 152.323 175.107C152.544 175.25 152.734 175.436 152.883 175.653C153.032 175.871 153.136 176.115 153.19 176.373C153.244 176.631 153.246 176.896 153.197 177.155Z" fill="white"/>
<path d="M168.225 133.575C168.127 134.099 167.875 134.582 167.503 134.963C167.13 135.344 166.652 135.606 166.13 135.715C165.609 135.825 165.066 135.777 164.571 135.579C164.076 135.38 163.652 135.039 163.351 134.599C163.05 134.159 162.886 133.64 162.881 133.107C162.875 132.574 163.027 132.052 163.319 131.605C163.611 131.159 164.028 130.81 164.518 130.6C165.009 130.391 165.55 130.332 166.074 130.431C166.776 130.564 167.396 130.97 167.799 131.559C168.202 132.149 168.355 132.873 168.225 133.575Z" fill="white"/>
<path d="M63.881 0.67436C63.8081 1.06102 63.6221 1.41737 63.3465 1.69834C63.071 1.97931 62.7182 2.17225 62.3329 2.25277C61.9476 2.33328 61.5471 2.29775 61.182 2.15066C60.8169 2.00357 60.5036 1.75153 60.2819 1.42644C60.0601 1.10135 59.9398 0.717827 59.9362 0.324384C59.9326 -0.0690589 60.0458 -0.454731 60.2616 -0.783835C60.4773 -1.11294 60.7859 -1.37069 61.1482 -1.52446C61.5105 -1.67823 61.9103 -1.7211 62.2971 -1.64768C62.5542 -1.60035 62.7994 -1.50256 63.0185 -1.35995C63.2376 -1.21734 63.4262 -1.03274 63.5735 -0.816817C63.7208 -0.600897 63.8238 -0.357949 63.8765 -0.101998C63.9293 0.153953 63.9308 0.417824 63.881 0.67436Z" fill="white"/>
<path d="M23.7606 175.533C23.688 175.919 23.5023 176.276 23.2271 176.557C22.9519 176.838 22.5995 177.031 22.2144 177.112C21.8294 177.193 21.429 177.158 21.0639 177.011C20.6988 176.865 20.3853 176.613 20.1632 176.289C19.941 175.964 19.8201 175.581 19.8157 175.188C19.8113 174.795 19.9237 174.409 20.1386 174.079C20.3535 173.75 20.6613 173.492 21.0231 173.337C21.3849 173.183 21.7844 173.139 22.1711 173.211C22.4281 173.259 22.673 173.357 22.892 173.5C23.111 173.643 23.2996 173.827 23.4473 174.043C23.5949 174.258 23.6985 174.501 23.7523 174.757C23.8061 175.012 23.8089 175.276 23.7606 175.533Z" fill="white"/>
</g>
<defs>
<clipPath id="clip0_19_4921">
<rect width="405.783" height="375.582" fill="white" transform="translate(-65 -115)"/>
</clipPath>
</defs>
</svg>
